<mxfile host="app.diagrams.net" agent="Mozilla/5.0 (Windows NT 10.0; Win64; x64) AppleWebKit/537.36 (KHTML, like Gecko) Chrome/128.0.0.0 Safari/537.36" version="24.7.12">
  <diagram id="C5RBs43oDa-KdzZeNtuy" name="Page-1">
    <mxGraphModel dx="880" dy="1595" grid="1" gridSize="10" guides="1" tooltips="1" connect="1" arrows="1" fold="1" page="1" pageScale="1" pageWidth="827" pageHeight="1169" math="0" shadow="0">
      <root>
        <mxCell id="WIyWlLk6GJQsqaUBKTNV-0" />
        <mxCell id="WIyWlLk6GJQsqaUBKTNV-1" parent="WIyWlLk6GJQsqaUBKTNV-0" />
        <mxCell id="zkfFHV4jXpPFQw0GAbJ--0" value="Vehiculo&#xa;&lt;&lt;interface&gt;&gt;" style="swimlane;fontStyle=2;align=center;verticalAlign=top;childLayout=stackLayout;horizontal=1;startSize=40;horizontalStack=0;resizeParent=1;resizeLast=0;collapsible=1;marginBottom=0;rounded=0;shadow=0;strokeWidth=1;" parent="WIyWlLk6GJQsqaUBKTNV-1" vertex="1">
          <mxGeometry x="150" y="120" width="210" height="230" as="geometry">
            <mxRectangle x="230" y="140" width="160" height="26" as="alternateBounds" />
          </mxGeometry>
        </mxCell>
        <mxCell id="zkfFHV4jXpPFQw0GAbJ--1" value="- marca: string" style="text;align=left;verticalAlign=top;spacingLeft=4;spacingRight=4;overflow=hidden;rotatable=0;points=[[0,0.5],[1,0.5]];portConstraint=eastwest;" parent="zkfFHV4jXpPFQw0GAbJ--0" vertex="1">
          <mxGeometry y="40" width="210" height="26" as="geometry" />
        </mxCell>
        <mxCell id="zkfFHV4jXpPFQw0GAbJ--2" value="- modelo:string" style="text;align=left;verticalAlign=top;spacingLeft=4;spacingRight=4;overflow=hidden;rotatable=0;points=[[0,0.5],[1,0.5]];portConstraint=eastwest;rounded=0;shadow=0;html=0;" parent="zkfFHV4jXpPFQw0GAbJ--0" vertex="1">
          <mxGeometry y="66" width="210" height="26" as="geometry" />
        </mxCell>
        <mxCell id="QT5-kErvMyWDPy3g1TAe-0" value="- anio: int" style="text;align=left;verticalAlign=top;spacingLeft=4;spacingRight=4;overflow=hidden;rotatable=0;points=[[0,0.5],[1,0.5]];portConstraint=eastwest;rounded=0;shadow=0;html=0;" vertex="1" parent="zkfFHV4jXpPFQw0GAbJ--0">
          <mxGeometry y="92" width="210" height="26" as="geometry" />
        </mxCell>
        <mxCell id="QT5-kErvMyWDPy3g1TAe-1" value="- motor: Motor" style="text;align=left;verticalAlign=top;spacingLeft=4;spacingRight=4;overflow=hidden;rotatable=0;points=[[0,0.5],[1,0.5]];portConstraint=eastwest;rounded=0;shadow=0;html=0;" vertex="1" parent="zkfFHV4jXpPFQw0GAbJ--0">
          <mxGeometry y="118" width="210" height="26" as="geometry" />
        </mxCell>
        <mxCell id="zkfFHV4jXpPFQw0GAbJ--3" value="- conductor: Conductor" style="text;align=left;verticalAlign=top;spacingLeft=4;spacingRight=4;overflow=hidden;rotatable=0;points=[[0,0.5],[1,0.5]];portConstraint=eastwest;rounded=0;shadow=0;html=0;" parent="zkfFHV4jXpPFQw0GAbJ--0" vertex="1">
          <mxGeometry y="144" width="210" height="26" as="geometry" />
        </mxCell>
        <mxCell id="zkfFHV4jXpPFQw0GAbJ--4" value="" style="line;html=1;strokeWidth=1;align=left;verticalAlign=middle;spacingTop=-1;spacingLeft=3;spacingRight=3;rotatable=0;labelPosition=right;points=[];portConstraint=eastwest;" parent="zkfFHV4jXpPFQw0GAbJ--0" vertex="1">
          <mxGeometry y="170" width="210" height="8" as="geometry" />
        </mxCell>
        <mxCell id="QT5-kErvMyWDPy3g1TAe-2" value="+ calcularConsumoCombustible()" style="text;align=left;verticalAlign=top;spacingLeft=4;spacingRight=4;overflow=hidden;rotatable=0;points=[[0,0.5],[1,0.5]];portConstraint=eastwest;fontStyle=2" vertex="1" parent="zkfFHV4jXpPFQw0GAbJ--0">
          <mxGeometry y="178" width="210" height="26" as="geometry" />
        </mxCell>
        <mxCell id="zkfFHV4jXpPFQw0GAbJ--5" value="+ arrancar()" style="text;align=left;verticalAlign=top;spacingLeft=4;spacingRight=4;overflow=hidden;rotatable=0;points=[[0,0.5],[1,0.5]];portConstraint=eastwest;" parent="zkfFHV4jXpPFQw0GAbJ--0" vertex="1">
          <mxGeometry y="204" width="210" height="26" as="geometry" />
        </mxCell>
        <mxCell id="zkfFHV4jXpPFQw0GAbJ--6" value="Coche" style="swimlane;fontStyle=0;align=center;verticalAlign=top;childLayout=stackLayout;horizontal=1;startSize=26;horizontalStack=0;resizeParent=1;resizeLast=0;collapsible=1;marginBottom=0;rounded=0;shadow=0;strokeWidth=1;" parent="WIyWlLk6GJQsqaUBKTNV-1" vertex="1">
          <mxGeometry x="40" y="424" width="200" height="66" as="geometry">
            <mxRectangle x="130" y="380" width="160" height="26" as="alternateBounds" />
          </mxGeometry>
        </mxCell>
        <mxCell id="zkfFHV4jXpPFQw0GAbJ--9" value="" style="line;html=1;strokeWidth=1;align=left;verticalAlign=middle;spacingTop=-1;spacingLeft=3;spacingRight=3;rotatable=0;labelPosition=right;points=[];portConstraint=eastwest;" parent="zkfFHV4jXpPFQw0GAbJ--6" vertex="1">
          <mxGeometry y="26" width="200" height="8" as="geometry" />
        </mxCell>
        <mxCell id="zkfFHV4jXpPFQw0GAbJ--11" value="+ calcularConsumoCombustible()" style="text;align=left;verticalAlign=top;spacingLeft=4;spacingRight=4;overflow=hidden;rotatable=0;points=[[0,0.5],[1,0.5]];portConstraint=eastwest;" parent="zkfFHV4jXpPFQw0GAbJ--6" vertex="1">
          <mxGeometry y="34" width="200" height="26" as="geometry" />
        </mxCell>
        <mxCell id="zkfFHV4jXpPFQw0GAbJ--12" value="" style="endArrow=block;endSize=10;endFill=0;shadow=0;strokeWidth=1;rounded=0;curved=0;edgeStyle=elbowEdgeStyle;elbow=vertical;" parent="WIyWlLk6GJQsqaUBKTNV-1" source="zkfFHV4jXpPFQw0GAbJ--6" target="zkfFHV4jXpPFQw0GAbJ--0" edge="1">
          <mxGeometry width="160" relative="1" as="geometry">
            <mxPoint x="200" y="203" as="sourcePoint" />
            <mxPoint x="200" y="203" as="targetPoint" />
          </mxGeometry>
        </mxCell>
        <mxCell id="zkfFHV4jXpPFQw0GAbJ--13" value="Barco" style="swimlane;fontStyle=0;align=center;verticalAlign=top;childLayout=stackLayout;horizontal=1;startSize=26;horizontalStack=0;resizeParent=1;resizeLast=0;collapsible=1;marginBottom=0;rounded=0;shadow=0;strokeWidth=1;" parent="WIyWlLk6GJQsqaUBKTNV-1" vertex="1">
          <mxGeometry x="270" y="424" width="200" height="96" as="geometry">
            <mxRectangle x="340" y="380" width="170" height="26" as="alternateBounds" />
          </mxGeometry>
        </mxCell>
        <mxCell id="zkfFHV4jXpPFQw0GAbJ--15" value="" style="line;html=1;strokeWidth=1;align=left;verticalAlign=middle;spacingTop=-1;spacingLeft=3;spacingRight=3;rotatable=0;labelPosition=right;points=[];portConstraint=eastwest;" parent="zkfFHV4jXpPFQw0GAbJ--13" vertex="1">
          <mxGeometry y="26" width="200" height="8" as="geometry" />
        </mxCell>
        <mxCell id="QT5-kErvMyWDPy3g1TAe-6" value="+ calcularConsumoCombustible()" style="text;align=left;verticalAlign=top;spacingLeft=4;spacingRight=4;overflow=hidden;rotatable=0;points=[[0,0.5],[1,0.5]];portConstraint=eastwest;" vertex="1" parent="zkfFHV4jXpPFQw0GAbJ--13">
          <mxGeometry y="34" width="200" height="26" as="geometry" />
        </mxCell>
        <mxCell id="QT5-kErvMyWDPy3g1TAe-5" value="+ navegar()" style="text;align=left;verticalAlign=top;spacingLeft=4;spacingRight=4;overflow=hidden;rotatable=0;points=[[0,0.5],[1,0.5]];portConstraint=eastwest;" vertex="1" parent="zkfFHV4jXpPFQw0GAbJ--13">
          <mxGeometry y="60" width="200" height="26" as="geometry" />
        </mxCell>
        <mxCell id="zkfFHV4jXpPFQw0GAbJ--16" value="" style="endArrow=block;endSize=10;endFill=0;shadow=0;strokeWidth=1;rounded=0;curved=0;edgeStyle=elbowEdgeStyle;elbow=vertical;" parent="WIyWlLk6GJQsqaUBKTNV-1" source="zkfFHV4jXpPFQw0GAbJ--13" target="zkfFHV4jXpPFQw0GAbJ--0" edge="1">
          <mxGeometry width="160" relative="1" as="geometry">
            <mxPoint x="210" y="373" as="sourcePoint" />
            <mxPoint x="310" y="271" as="targetPoint" />
          </mxGeometry>
        </mxCell>
        <mxCell id="zkfFHV4jXpPFQw0GAbJ--17" value="Conductor" style="swimlane;fontStyle=0;align=center;verticalAlign=top;childLayout=stackLayout;horizontal=1;startSize=26;horizontalStack=0;resizeParent=1;resizeLast=0;collapsible=1;marginBottom=0;rounded=0;shadow=0;strokeWidth=1;" parent="WIyWlLk6GJQsqaUBKTNV-1" vertex="1">
          <mxGeometry x="508" y="120" width="160" height="100" as="geometry">
            <mxRectangle x="550" y="140" width="160" height="26" as="alternateBounds" />
          </mxGeometry>
        </mxCell>
        <mxCell id="zkfFHV4jXpPFQw0GAbJ--18" value="-Â  nombre:string" style="text;align=left;verticalAlign=top;spacingLeft=4;spacingRight=4;overflow=hidden;rotatable=0;points=[[0,0.5],[1,0.5]];portConstraint=eastwest;" parent="zkfFHV4jXpPFQw0GAbJ--17" vertex="1">
          <mxGeometry y="26" width="160" height="26" as="geometry" />
        </mxCell>
        <mxCell id="zkfFHV4jXpPFQw0GAbJ--19" value="- licencia: int" style="text;align=left;verticalAlign=top;spacingLeft=4;spacingRight=4;overflow=hidden;rotatable=0;points=[[0,0.5],[1,0.5]];portConstraint=eastwest;rounded=0;shadow=0;html=0;" parent="zkfFHV4jXpPFQw0GAbJ--17" vertex="1">
          <mxGeometry y="52" width="160" height="26" as="geometry" />
        </mxCell>
        <mxCell id="zkfFHV4jXpPFQw0GAbJ--23" value="" style="line;html=1;strokeWidth=1;align=left;verticalAlign=middle;spacingTop=-1;spacingLeft=3;spacingRight=3;rotatable=0;labelPosition=right;points=[];portConstraint=eastwest;" parent="zkfFHV4jXpPFQw0GAbJ--17" vertex="1">
          <mxGeometry y="78" width="160" height="8" as="geometry" />
        </mxCell>
        <mxCell id="QT5-kErvMyWDPy3g1TAe-3" value="" style="shape=image;verticalLabelPosition=bottom;labelBackgroundColor=default;verticalAlign=top;aspect=fixed;imageAspect=0;image=data:image/png,iVBORw0KGgoAAAANSUhEUgAAAjIAAAB0CAYAAACfUtgBAAAAAXNSR0IArs4c6QAAAARnQU1BAACxjwv8YQUAAAAJcEhZcwAADsMAAA7DAcdvqGQAAIfPSURBVHhe7Z0HWBRX18f/21mK9C4iRVAURRZURFQwduyxxzexJTH6xiTGFmtE002s0RgrKLErIkoEJEiURGNFEGMLCEEQRaUtssv5ZguwwMouRJP4vfN7nlH27p1bTrlzdubeOxxiAAsLCwsLCwvLS4hGIFOJnNjV+PanPMhVCQwccLg8CMWmsHXzRa+BwfA05aq/+7uRI+vYamw8lQ9um5FY9LoEIvU3DSHPOobVG08hn9sGIxe9DonGSaWFheCam8NA/flvpfI+kjauwvEswLn/B5jWw1L9RUM0QgaP03B48xYcTL6Ku49kEJo3h1fXIZg0dRi8zdQ6lGfh2OqNOJXPRZuRi/C6pnD04B+VHwsLCwsLiwJFIKOigs7Ob0cCJkmRXP/gkLDFUNqYVq7O/3dTTimzWxOfaYto0DZ6ok7VRXnKbGrNZ9ovGkTb1CfJH16k8Fl9qFWP5ZQmU6X97cgy6NMuAkauAgr47IY6URf6yUCed5T+286IOLX0p9KhYevJtC9LrspYnkKzW/OZdBENqhKOHvwr5MfCwsLCwsKg9fYKzzYIk+fMxdy5czFn9gd4Z2xXOAqBp1lHsGDpATxU5/t74cGh51TMZtr04QhvMM3RC55DT0ydzfTlwxHwVp4kR+bWdzF55Qn8UaK4vv9/Q4Yr6xdiY1oJOFZd8OaX4Th45CC2hY1CG0OgNGM7Zq2IQ6kiK88BPafOZvT8IUaohKMH/9/lx8LCwsLyMqE1kOHa9sD0FZ/hs88+w+dfrMT6yB+xYbw9E0pU4vHl33DtqTojpLh9bCX+O7o/QkL6Y+S0T7A/rUj9XRVPkRW/Cv8d1Q+9+ozAO9+cRGb6AayYPw8LNiThQSVzabx1GJ99NA/zl/6AVJn6NPltRH3+EebNX4yIS1WJ9ZHnp2DrgikY3i8EPUP6Ytjrs7E+8S5TqzYqUZi8Cd/8mMn8xXzKPYnVCz7G7qtV5UuR+dMmLJg8HP179cKA0e/gk72peKTIXIU8HylbF2DK8H4I6RmCvsNex+z1ibirvcIaiq/h4PKpGN6nF/qNehdrEvOYkKM+0tvHsPK/o9E/JAT9R07DJ/vTUFeiDfMUGek3IWNiVNvBC7D6wwkYNmgY3li4DWvfaMnoUI4/kxOR+qz2Ntg/HfKT3saxlf/F6P4hCOk/EtM+2Q9Ncyj/bTsWzpuHhdvP4R7z97wJA/FK72F48/NYZMlkyE1ai3dH9UWvvq9i+tcJyNEQ0NPMeKz+4DUM7h2MHiF9MPQ/s7D25N0aGVY+RPLGBZg3bwE2JD1QJ7KwsLCw/L9HfWeGoebRkqD9QrpQoU5WUHGb1vc1U9y+IYFfmPpxgpSurO5LtjyO+rGF6uCa+tPCU1WPKWSUuWssOQs08nBE5O7bjsy4TFkBn9ENpixp/DRqwQNxzEbT3hL1qdKTNMOFx+Q3pGE7FYlaHqsUJdKsduJ6j1A4QjeafDiPFA9Qaj9aktHtr4JqPz7jmtO4/WVMzkI6tSSQLOr0R1F/m8n7KFPZ5yJKnNWOxByN75V5hOQ2+TDlqZ/Y1KP8Cn3zihXxNM7jCCzJyozL/F3zaEl6ZTX1teXV7g/XlPwXnlI/RtLn0VIF/bawAwmYujhiF+o940v64ad0ytf2RLDeoyVd/WtAftIrtLqvba0+MiExmfovpCpzeLQ1lERMOt+lHXmZaNqEAbXp/Qq5izTTxCRZekF5njx3P73eUqBFz570QZJUmYdkt+jLbo19VMfCwsLC8rKj9Y6M/HY4JvcIRGBgILp28UM7146YeeIRKrkWCH5jFDx5zA/grG2Ys+gE8sgSwWGJyMq/joMzfGDw5Dd8NXst0hQzhktP4tOP9iJTxoXjwC/xU2Y+/ohfjJY512rf5Wgi0p/CsSu9DLzW03A0qxjSRzdw6J2OMGv2FGejE1FQrw4e7Ed8jm1ve4O5GIPvOQmbo/dhbjchyn/5DO98cgaFsEPvsFjcys/FxfAp8DYsw7Vt0/Dezj8VFSJ8VzrKeK0x7WgWiqWPcOPQO+ho1gxPz0YjsX6FSh4eXI4VJwtQyXfH2O/PITf/Bo7M8oTsiUb+yixsm7MIJ/IIlsFhSMzKx/WDM+Bj8AS/fTUba5UC1Qc+Ok7/GBM9DICyO4hbNxtje7aFg1UL+A1+B18d/R0l6pz10Nk/zjPkx0fWtjlYdCIPZBmMsMQs5F8/iBk+Bnjy21eYvTZNVb4aWeafsJ39E3Ie/YEfXmsBHklxLeEcrD84gaxHtxE+ypFJK8OVY8eZ3JXISziK3yqawbr7Yvz0Zxmk+aexwJ8JiZ7eRkJcuuquDMcAju26omvXrvBu3rhJyywsLCwsLzHqgIbh2ZN9OTwjcujQj6Zv/IUeqO86FDC/ro2YX98852kUr/5RTAWbaaARh/mlHERf3ZZR+S9zqI3ibojAn5anV80KLadf5rRR3lX4q3dkpCdnkIviPIEVeQ+cTB99HUGxF/8kxf2VKupP9q25q1Bzd6mcfnrXjSmbQ6Kgr+hWVVOphI5NbU48Jl3cZ4NGmwRk5T2QJn/0NUXEXqQ/NSush5Ri31SVYfDKesqpumtTdoymODJlVd1BKNhKoYzswHOmaTUCpc0DjYjDEVLQV7eZz/pPeJYXnKPwheOph6cliTgadzq45hQYlkLFikx178jo1T9t8iugraGKycU8cp4Wz/RYRcHmgYyNcEjIyFRB1R0ZrsU42q/W84NN/ZRpnGbDadcjVVr+d31Vd25af6hKqKIsl1IT99GGZdOoV0uhsj6XGYnV9bGwsLCw/O+h9Y4M3+01fBt1CNs/fhWtjRU39AWw9p+Ad9/oDAvlGTLk3s3FU+YSSA+PYU6I6u5N4KCvcf4pkybPwq3bMlTm5yvnwHDELmjlzFOWDQjh4uKkfXKO4lJbDaGy1uf6iLrPxJJR7jCQFSA1Zgs++WAC+vk6w6HtMCyLy1XO49CPcty5nc30igsrz7ZwrGoqDNCuXSswsRIqsm4rKsTMJaPgbiBDQWoMtnzyASb084WzQ1sMWxaHXK0VynD//gOmLRyYOzur5ccgcIWbU40UZLl3kasSKI7NCVHJM3AQvlYJFFm3mPobAdfSDxPCduKnjHwU/PErjm5egnE+ZuBWFuLMF2GI1NbYJvWPQZaLu7lPGSkRHh6bgxBl2wMx6OvzUKTKs26pM6rgWljDmonGFIhEqrsnXHM72KnXcRuJ1X9UqissuYwtbwbB2bo52gePxLTFG5Dwh6JkFhYWFpb/dbTGExyjlugyYCheX7wbx9cPhwPnES5vmYRhs+PwUHlt4UAoVDxcYP5q5gq/bkEICmKO7oPw+gdzMHf2VIQw0QDH0BBiJg6CTIqyCmV2BjkKHz2pdxFSZINMVjN5k8ogleq4VPHc8XrkZVw7tROfvz8efSQtYcaXoTD9MD5+bQ4OP1bn0wkPxsZipg2E0uKimjYwn4ueFCnbyjEyZv7lwf31SFy+dgo7P38f4/tI0NKMD1lhOg5//BrmaK2QB7GBSFl2WXFpTXDF9K9Mqv6bgSMUKh/XMAKFq183lTyDumPQ6x9gztzZmBriqMynk6IjeNfPHc2tWmDCfkV7uDBu4Y+Bk5dix7Z30V5xK6XsOq7+rjGTtpqm9I+BI4TKHDho5uqHbsq2B6H7oNfxwZy5mD01RJmtGi6PqUkFR6l45n8+H3z137V5irOfTMA7m0/jT+POmLh4PXbHn8Xm0VZMzzjg8Rg7U+dkYWFhYfnfQ2sgUwMPLV9bjzXjncFHOa5tnI4FPxYq01t0aAsb5mpEUjN0fe8T5QqnZWOb4176Tfz5xBT2jnwI2vrAy4C5hJefR1zcfdVFXHoV+6IuawQLzEVMbAgmG+jpPeTcU80Fefr7b7jyoKFARo5b+xdjytjx+O9BISZ8tRM//nYHOUmz0Za5qFYW3sbN+9rmlXCY66jiEshAcsiVVYjg26kDRJxKPEnah8N/qsON0ovYE5XKtJUHp4DukN/aj8VTxmL8fw9COOEr7PzxN9zJScJsVYW4ffO+6rxaCNCufRvmIs0ERb/G4adHqtTya0fxY0aNFHgtOqCtSqAw6/oePmHk+dmysWh+Lx03/3wCU3s9AxmxK6yQhT8fZOPQZytwMr8qdCrCpWNJuMOIhMOxgq1t9W2navTrnxb58VqgQ1sbRkoEqVlXvPeJYsXbMoxtfg/pN//EE1N7Re6mUVmAX1Ou4ynx4TVlDb77+B2M7tEMBXdVASbTCOW/jLLwx68/4vjxH/HLHeXichYWFhaW/wXUj5gYnr1qSX5vP01wUqym4ZCg9XuUqJicUZZCC3wMmDQuGXv0oUnTp1A/D8U8CS5Zhn5PfyjmTsjzaf9rjqS4PHNNvSh08ps0ppOdckWNouqqOTKUv40GN2Ou9BweWUpG0fQZ46mbozEJFaudGpgjU5T4HrUWMnm4ZtRu8Jv0wazpNKazonymnV5z6Ey5tjkyRIXbBpEh0waOSTsa9vY0+iZJyjT1ME1yUayM4ZDYJZj+M20qDeuoWmnEsxtCWxQTZ4oS6b3WirkZXDJrN5je/GAWTR/TmeyYdnIEXjRHUaEW5H9spkFWXFX/Oo6gt98ZRwGOIhIIFDKtWmVTRikLfEgR93GNPajPpOk0pZ+Hch4S1zKUvlcKVJ85MnL6c/c4aq6InJi+8Ju1oPb+ncjHzYKESrlzySp0E91WFldnjoye/dMmv7KUBeRjoNCFMXn0mUTTp/QjD8WcH64lhX7/h/K86lVLHh/Qz2pRlYQPUaW5vUtJddOYfETFdPh1O2JCJ+Ja+NLIae/QuCAnpZwUfbF944hqThS7aomFhYXlfxL9ll8zF8fcPePIUfGTm2NAHT9KIUVoIc3YRdM621YHJoql1Y7BH9HxP2vWIcvzTtBHQVV5OCRy6k3vjO2gqqcqkGEuVr9+0Y+aq5ffcgS21HXmd7Sgp7DBQEYxGffKlkkksdJYmssRkLn3eNpwoUiZQ+vOvpkRNNpJccFWnCNQT6RlSrsaQTOCW5Jx1RJspixLnwn07Tn1LFSGkitbaJLEqqbPiuDO3JvGb7hAqhq1wQQXx+ZSkJ2qnRyuCXmO+oaWj7BgLtAaF15pBu2a1plsq5erM/JyDKaPjv+pXEquXyCj4Ald3DyVAh1rL01XLPluP+oLOpWv1o+WnX316Z92+UkpY9c06mxbowuOyJGCPzpOVebQtECGsczrW2lsK0NVuRwuNWszllYuG0ZWXCZP23n0q+I8NpBhYWFh+Z/kObw08inuX7+EazmlEDq0RcfW1vXf/1NZgrtXzuNWiSXa+LVGydqeaD37ZyDgM6Qnz4W7+ilH+b00nL/+CCatOsLbwVCVqA/l93H9cjqyiwjGDq3RoY2dzvf/VBZn4eL5Wyg1dka7Dq4wV08+Zb5BUdZVpN5+CI61Jzq2tddSVjnT58tIzy4CGTugdYc21RNVG6Q0B5cv3ESZjTf8PSyq54nU5en967h0LQelQge07dga1vUEqifyItxNv4pbecWoFFvDxcsLLub67OCru3/PlN9TRheXriGnVAiHth3RusmNr0N5PtLPp+E+vwU6SNxg9izhsbCwsLD8T/EPvP1ajttfaQ9kWFhYWFhYWFgag47JviwsLCwsLCws/17+gTsyQOkfvyL52kPAvDWCurigEQ+RWFhYWFhYWFiq+UcCGRYWFhYWFhaW5wH7aImFhYWFhYXlpYUNZFhYWFhYWFheWnhLGdR/P4PHOL1pOb7ddwLx8fFajpM4X+KCgNbmqEyNxMdrk8H1lqClEUd9vr7IkL53BVYnyODl7wrFK570objwEbhig5ckIpPhUsRSrEvho6Ovs+r1DbqQXcXusDX4idrBz8Xof2c7/n9zv2Xp2LtiNRJkXvB3NW6gbTJc2/cJvo48jwqPTmhl+letVIbUyI+xNpkLb0lLNNrF/gKySxFYui4F/I6+cNbLcPVEdgkRS9chhd8Rfs6C+mOANAN7l8zEhyvWIfzHR/Ac1EXjXWj/EMWFeMQVw+BFDzoa9cjS92LF6gTIvPzhqu/g+P8Fvf3tn0d2dTfC1vwEaucHl7/TQf/XUcyRaRB5Fq0KFhLH0J482raltvWO9tR3xa+k2JOsZM8oaibsQp9mKHe5ayRldPg/1iT0XUKXa23G9yzK6PQnweQ6cH31hmv/fkpo5zBD5duglTvr6kPZfhpnLiS/sDRqilRfWv7N/S47TP+xFpLvksvUoKk+PEj/cRCR26SDlPtcbLSE9oxqRsIun1KTXOwvULJzGBmq32r/XCnZScMMq97uXncMkFH6Z13JgGdFHYe9QZPn7qLr/7AxlJ3+hIJdB9L6Fzzo1K2n7PB/yFroS0v0Gxz/f6Gvv/0LKNs/jsyFfhSW9j81Wv/j6P2bgt9uOg5fvoqrV+selxH7USfos81awxhgyI58lJ9fivbVm9M1hBTXfj6DbF0vlmR5ORF2w9x9R7BmnPMzNw78t1N45lfkd1mMHauGwe7luGX4D1N3DKjAjYybkHtMwobd27D5s3Hw+IeNQXrtZ5zJliq3rn6R1K3HYMgO5Jefx1L9BkcWlv8pdD9aoif4NXwN4ip6YNrk7rBuYECuSNuPlYceI2jaJHSz0pZRhryL0dizez+iTqQg4z4Pdm5OMFX6ppZHS7I8XIzeg937o3AiJQP3eXZwczIFH0VI2bwcm6NTcOOhHOX5hRApbuUpTpLfx+XoXQjfcwQJ5+9AauEKd6uqbWlVday7ZIbOtndxaNs27DtxAbkiZ7RpboKKrGT8sGUHDiakorCZOzztFG/EVlP5GL8nHsAPew4i+scknL9VhGYt3WFr2PAVqvhmHHZti8SRU79DauOK0vjVOFIajBlvdIW5+lT5/cuI3hWOPUcScP6OFBau7qhp8jUcXHkADwKmoD8/Hlu2HURi2gMYtvCAg7Fm3XLcvxyNXeF7cCThPO5ILeDqbvXsHY6Vt2vX4ZJZZ9jePYRt2/bhxIVciJzboLlJBbKSf8CWHQeRkFqIZu6esNN4nFD5+HckHvgBew5G48ek87hV1Awt3W2hEoVKxmsvNEOA/T1E7diOvcfO4EaJBdzcrZUvB62mIV3J/0DirmO4ZeZb82ipQR3IcHV3GNZfNoHr41hs2PEjMqR2aO1uUSvILvl1K8I2pIDbvvbjz+JftiBs4wWI/X3hpNiMuKG2ya7j8Df7kO8/BcPMUhC+dQ+OpdxAsTmTx7rKZipRlHMdd6WO8AtpB5sqVcnycYkpN2IvU+5vmaiwcoOrpaJC7Y+Naj/SkSFt/0ocehyEaZO6ocrFnuaexaGICOw9mogLf0hhrmk/Cp7pRw1QfBNxu7Yh8sgp/C61gWtpPFYfKUXwjDfQtcZwG/C1Z1GMm3G7sC3yCE79LoWNayniVx9BafAMTOxqUjMG+PJxavUXCI/9GdcKGWk+uIl7hr6QtGDK1+Hjz7aDhn1E+fhm7QU0C7DHvagd2L73GM7cKIGFmzusGcMtStmM5ZujkXLjIeTl+SgUtUMnF8Vb8RVNasCHFTRCB9rq8S07pvFoSa6U05rfjNDJ8jb2bN6Ow6fS8FDsjFYORrUfsz/NxdlDEYy9HUXihT8gVdioZsMabFclHqafQtKF+xC2cIRpA0GkLP8S03/GBpn+/5ZZASs3VyjNWo1OG2V4Zhl6+ZsC3WOgLO8iovfsxv6oE0jJuA+enRucVBegOjzFlcgwrIktgmsXz+qxWpGeyqSvTeagA+OnhjWVK5FdO4iVBx4gYEp/8OO3YNvBRKQ9MEQLDwdoDte6xtBn27AM+ZeYPkbsZfr4GzIrrODmaqmxm/5T5J49hAjm+6OJF/CH1PwvyOAlQn1n5tmoHy0JOi2ndB13yxp+tFROV1b3IVuBGbl2CqbewX7UwphHzSQLKEn5Ep86t5XLr9DqPrYkMHOlTsG9KdivBRnzmpFkQRIVUSGdWD6GAhx5xHPoRMPGL6ADWXKSP0ikxd1tSGDoQO0CgynI247EImcasu6y6sWC6joMO/ahkObW1CogmAI9zIkvcKYxi2dTd0d78grsQRInI+Ia+tD806qzSHqZ1gxwJCFTbofur9Ar3TuQg5hLghbjKDL7WbeYK+j61pHkIhKQmYsfBfq3IkuLttTBTaDxaElODxIXU3cbARk6tKPA4CDythOTyHkIrbusrlv5iIVPju07kJ2pI/l07UKtrUUksO5Jy89UvTzqASUu7k42AkNyaBdIwUHeZCcWkfOQdVRVTD2Ut2sNqWOfEGpu3YoCggPJg6lH4DyGFs/uTo72XhTYQ0JORlwy9JlPNaJYQwMchUx7O1D3V16h7h0cSMwVUItxkaQShUrGoo79qa+TBTlLulMP3+ZkyDUgj7eiqeo1Tzp1VffRkk4dlNH+ceYkcm9LnnYeFNBdQpKpB+mh4lwNZNc/p0ADE+q3MUf9/ioFDyjyVQsSdV6htHHdbVPIjk/27X3I0dyZJMHB5OdsTFxRK5p86J66XBmlhfmR0Hwc7VfLTv5nNL0nMSOeIaPH7sHU2c2M+GIPmrgnk8mt/bFR7Uc6dfPIKPPANPIx5ZGRky/1DOlKnpZCEjoNpK/Pqd+M1aAfaUfxbquRLoyNmbmQX6A/tbK0oLYd3Eig8WhJt69poeI6bR3pQiJmDHDxCyT/VpZk0bYDuQm0PFqS3qBds8ZQT1cR8Sx9aODo1+jjYwVUoYePa7UDPXxE+fhG1JH693UiC2cJde/hS80NuWTg8RZFM4ZbeGI5jQlwJB7PgToNG08LDmQxZ+nhw43UgbZ6aj9aUsupXTD1cLCkVkH9qE+nFmTEt6Kgj5Op6s1wsswDNM3HlHhGTuTbM4S6elqSUOhEA78+p6pXZ7ukdHKGC/GEr9C392q8pTZy+jP6PZKY8cjQ0Ye6B3cmNzM+iT0m0p5Mha3oYaO6ytDH3/TQb/mV1dTHlhmPXTtRcG+mjBbGxGsmoQWqC1Ad5JTzXX8yEUro4ysaD7RKYumtFkJqN/+s1sdcykdLfEdq38GOTJm+dO3SmrEpAVn3XE5Vw7U+Y6h2G/6Tot+TkBnPkBx9ulNwZzcy44vJY+IeUok6kw5M8yFTnhE5+fakkK6eZCkUktPAr6lmOGiMDF4e9A5keI7B9OacuTR3bp3jo7WUoDbyBgOZ8iR6101Inu+fYoZjFUVn5pHEyoPeOVrMfKodyJQnvUtuQk96/1R1bjozT0JWHu+QMjsTzGweICJhr3XqOTJFFPu2Cwkch9OmNGUGhid07pOeZG7YmVak1gwAXF5zGrXzD5UhFsXTdDc+cUQ+NCuxQOkU8vzdNJpRtsv0k4ocVLBzBJkLPGlGfM1l8UnyLGorMKA+G3LVKbWR39tBwywE1HLMTrqpfBmijHJippO3AYcEVYFMUSy97SIgx+GbqKbJ5+iTnuZkyFxUVU1WXNC5xLMbQKsvqYxNnhdPsyRGZOC3TCmroti3yUXgSMM3pVFNMZ9QT3ND6rwiVZ1SB+XgwJTbfBTt/EMpCUYU08mNzyGRzyxKLFBKgvJ3j2aCTxeaflLKfC6gnSPMSeA5g2pE8YSSZ7UlgUEf2qCcCFIlYycaHXGbGQoVPGR04058o4G0OV/xWQ9d1QlkdOtA5fxcQTuafaaqTC3I/6C1vYzIqPd6YmJfVVI+oyszQ+rx9S2mLn3appYdk2erSrlMlp9oZmsBGYduIWUXmZJqBzJP6OhkJxJY9aVVV9Q2XX6DNoYyF2WXGXRS2vhARp4bTsOt+OQw9DtKVw/W8vwE+pCxDZH3PEphhK/bj+ogv0c7hlmQoOUY2qnumywnhqZ7GxBHUNUOfXytLnK6t2MYWQha0pidN5Vz6piCKWa6Nxlwql48WnsMUHw+NIG5+EqWkupaop+Pa7MDfXxEGSxweeQ0OoJuqwyXHjLnufONaKDKcKlw8wASCXvRuqo5Mnr4cKN1wFC3Hm2BDJdnT4M3pKnH00JKWRxAJiJfWnyRySPPpfDhVsR3GErf1RgHJXwoISORN81jjEN3u5ggLe0nOh57ljLVZl6PJ0dpspOArPquohqz3kihTGDnMuMklepho7rKkOrhb7r1W05J77qR0PN9qunuGZonsSKPd45Wn6OJPD+chpkLyGfxxeqgpSh6EjmKJLRUM7jRQBnIMDZkN2A1qYZrOeXFzyKJkQH5LbvMfNZvDNVmw0+OTiYngRX1XXVFrfNyurExlAneXGjGyVLKDR9OVnwHGvpdOlOCAmb8TviQqVtE3vNSlPkbK4OXhVp3IRuisjADP8UcxdGjdY5jyfi9WI8nxlwzmJsSMo9+g8+3xyE1rxzGAZ/it/vXsX6gkTpTDVwzc5hSJo5+8zm2x6Uir9wYAZ/+hvvX10NLdkCahH1R2bDr0Q9eT1Lxyy+/MEcaZF16wQcXcCT6ljojU7Zdf0x81Vl1+9TYFz4ePPDbj8CkIEvlbVmuhQ86uHBQ+OCBIgdMB65EUsoRLA02V35W3HLl2DnCni/H48LH6rTaFCUcwckiL0yYOxpuymcbPDj0W4jpPWpuhUqT9iEq2w49+nnhSaqivcyRJkOXXj7AhSOIviVX5+TB4z+L8HYH1W1srk0vzJ/RC4LL0Yj+vQRJ+6KQbdcD/byeIFXZ71+QJusCVTHRynO0w4Vd/4l41Vl1W9HY1wcePD7aj5iEIEulJGDh0wEunEI8eKBoiykGrkxCypGlqBEFB3aO9uDLH6PwcY0d8BxDMXWki/qWpzmCgn1h9DQPufeZchqhqyr01QG3eU8M8NVmIGq4Tnh1bDD4p/fj0N1KJqES+Uf24aQ8CGNGtQRP77Zx4TBoGsaplAuYdEYPv2Z4mpuNPJkqqRblpxEVew/2I2bhLW/1XtZCd0zelIiU4wvRWeM2vL48jjuE+MdtMHHhJLRR3zvmWodgwYcDYJhxGAcuPG28HxUl4MjJInhNmIvR6r7xHPph4fQeNavsmqA/pmAkHDmJIq8JmDvaTfW4j+eAfguno4e+q6Aa4+O17ECqv4/wHBE6dSRc1PowDwqGr9FT5OXeVyXUQR8fbrQO9ITnMQEfTfJS74xuhi7vz0AfcSpioq4pjAOH4h+jzcSFmFRjHAhZ8CEGGGbg8IELerSL8X8vRmZ9/dFC8/msBuWnoxB7zx4jZr2FGrOejE2JKTi+sDOketiorjJUqmjI3/TRLxdm5qagzKP45vPtiEvNQ7lxAD797T6urx8IbWrgWg/C2H5mSDu0D5eUPv0YcXtj8NB3JEZ7NfAohueB/yx6G6rhmgubXvMxo5cAl6MV7dB/DK1tw+U4HRWLe/YjMOstb7XOhXCfvAmJKcexsLMUcYfi8bjNRCyc1Eb9KIkL65AF+HCAITIOH1B+bqwMXhaqAxn59e/xeo9ABAaqjx4T8F1G1YW0gcm+F/fgbTc9ZuDx22HmmhXoz0/EJ5P6oENzazj7D8GMVQnIeqrOowG/3UysWdEf/MRPMKlPBzS3dob/kBlYlZAFLdlR+SgTmQ8qcDfyTXQLCEBA1RGyCImllcjLzlHnBDhWdrCrbjIXPOZvjokZzKrHUz74iu/Vmx7zzexg8igeX705An2DfOHpaM44+FwklTNZKhUXw7rIcS8rB6XMRdPFRcPgueZo5WajFnolHmVm4kHFXUS+2a2mvcwRsigRpZV5yM6puiLy0LKVp2rwV2Pi0hI2uIe7dwuQmfkAFXcj8WY3jX4HhGBRYikq87LVZ2iDAys7u5rJtFwe8zcHJmZmNc+d+Xzl9ypR8GFmZ4JH8V/hzRF9EeTrCUdzC3jNTWLcjKApCo6lNayqC2aKForA5xDkciZfI3RVhb464FrUrrc+TPA2dBwz4P+Kgwf/gLwyF4f3JYHTayyG23Mb0TYurGysa2THwBcwupbJoC2OQWk2sgsAJzdXCNRJCvj2XpB42jbhNR1y5N3NQRnPFR6etQdVY/dWcGRsQ2E/jfUj+b0s5JRy4eTiojF/gwvzVm7V83yaoj+mYGTllDJxpAtqu0QruFVPIGqYxtRbyw4qH+nvIxxLWNc2XIj4HJC8ZiysQT8fbqwO9IXv1hqtNQcFQ2c42wB/3s2CPO8ucsp4cPXw1NAjg7E7WjkC9xhZPY92lWZnowBOcHOtZdWw95LA01akl402XEaVZzTgb3rpl492M9dgRX8+Ej+ZhD4dmsPa2R9DZqxCgrYLkBIz9B83CDbXD2HfeSZPYSz2HC9G51Gj0KqhMYbXEq08a43WcGnJKObeXeZv/cfQ2mNZKbJVAwhqi8keXhJP2IrycDenDDxXD9QWtTHcVQpn/m6KDF4O9BtBngvMYBg4GwfTc5F5LhrfL5uCbsZpCJ8VisFhZ+s7DnPRD5x9EOm5mTgX/T2WTekG47RwzAodjLCz9YXOFRlAxBXAf3k6ZKpHZhqHDHfWh6hzMmMVj9uIjlciK+I1dOs/DwdzLOEXOhWLNsbgys1NCNWcQVULDgwNxeBQCYqLawc60vKn6pUIXIgMROAK/LE8XVanvcwhu4P1IeqfhcwZ0rIypiU1VBaXMKZthGbNDGAg4kLgvxzpsjplMIfsznr1GdrggMdthAlUZiHitW7oP+8gciz9mF+ui7Ax5gpubgqtP6mYw6kJhurQGF2paIQOOIxudf3AtwzFuIGmOHvwIG5mMoPUaQP0GztYeaFulB0xfdQboRgGzABTVlpavRJFQWXhLVxKzUShIvpRlMeMZJrfl0vLwcR+WuBALDYAp7K+jcmLn6CE0YhYsQFJI/2IY2gIMRNwlhQX17I3xnDxVN2OxuuPgWMIQzETEJQUo3ZzpSivKlgHjapX0w64okb4CGO3eqtVTx9upA70haRlKNOUJRWhqAQwMm4GjpixN05lfT3Ki/GEyWPA2M7zaJeQKYePMpSW1rJqFN66hNTMRxDoYaMNl1FY/cPgmf6mp3655oGYfTAduZnnEP39MkzpZoy08FkIHRyGZ3XX+JXxGOJ4C1H7f8O9Y3txorwbRo/UsZKSpCirpZhKFJeUMoppxvzZmDFUcywTMrJSDiCoLaZC3LqUisxHAuZ7Dirr+ZccxSqFKz81RQYvA9VXMZ7nVOxIOo3Tp9VHUgTeat2guhpF5f1YhI0fhaVxFXCQhGLy/K+xK/4I5vjKkXHuEmo/oKnE/dgwjB+1FHEVDpCETsb8r3ch/sgc+MozcO6SIjcHta7BJr6QtAauxkQhQ+MnsfzWdrw9aCSWHNN+a1gnlfmICY9Gftv3sSd6E1bMnYbXBnWDS046rjOKr9R6R4YL287+cKNLiP/xXs1AIr2IpJT86s8mvhK0xlXERGVo/IqX49b2tzFo5BIcu1+VU4aryT+hoLqgEvxyIhkFZhJ0bmcJX1XHEVW749j+9iCMXHJMnfDXqcyPQXh0Ptq+vwfRm1Zg7rTXMKibC3LSrzOBaGWtXxMN0lhdNUkHDWGCPswvLesL0diycT9+NWUCmwHq+7wvyo4MOkLSloPfk5OQXf3jXo7M8KkIDJiKH/KYLMxFkR4VoKD6+1JcvJjB5NIGF/Z+vnCm84iNya2xMSYwuHA8EdkCL/i25+vhR7Xh2naGvxvhUvyPuFddqBQXk1KQX/W5KTLi2qKzvxvoUjx+rCmYcYkkpFQXrIMm68bkufkIp07gr9uHZY3WgYK69WhDdjkRJ2sGBZSePYFT+abwD/QG194Pvs6E87ExyNUQr/TCcSRmC+Dl265J7aqLQUcJ2nJ+R3JSdo2dyjMRPjUQAVP3gOury0aFOsr4AXk6zUMP/VbeR2zYeIxaGocKBwlCJ8/H17vicWSOL+QZ5/DM7hp0w/jhLvgjdg/WH/wJFDwaw+x16EZ2Fck/FdT0t+QXnEgugJmk818YQw3QUdIWnN+TkVQzgDBiCsfUwABM3cOFn68z6HwsYmorHMcTsyHw8m26DF4GmIi1YdSTffke4+ibXZEUGVn/2H38Cj2U65jsW3GRlvkbkkGr4bQ88gQl/5xA+78cQ55iEwr6QjGhs/ZEv4qLy8jf0IBaDV9OkSeS6eeE/fTlGE8SmwTRF8rNhspo31gz4juG0sc7jtGVhxWUtWs0OfLF5D5kEW2LTqC4vSvpDZ9mxLcdQlvuqM6pPZlQwSPaGioiYchaylHP3yPZTfoiUEhmo/cyH4opepIj8U0kND0imS6nnqO48MU02N2YBHwBeS84pzqnLrI7tHWoHfHNJDRl1QGKjQmnxYNdiQmaayb7MrLdNZopW+xOQxZto+iEONq78g3yacYn2yFbSNVk1WRfgbg5BX+4hWISjtLWeX3IUdiMApb/ppxMK8/aRaMd+SR2H0KLtkVTQtxeWvmGDzXj29KQLXcUramPcgJdnU2mHm2lUJGQQtbWrOiR3fyCAoVmNHpvCSOKaJrE1GMimU4RyZcp9VwchS8eTO7GAuILvGnBOUVJ2mTMpB6aQJbCqklyct26qjXZVx8dqCbICf3CSK+9qKSn6D0PETHBA7WcFlc9AV2/tmmRHVP/kYm2JOywiBRzLRnJ1ZnsK6ec3WOpucCc/N9aR4dPnqSob2dQgJWQXCZHUYGcqXdDP2rGs6KgWdvpeOJxRrZDyMPalAxFz1i1JLtB3w20Ib65ysYSkphzFoWSi8iAWk8/Tg+YLLr9qC4yurN1KNnxzUgyZRUdiI1R6tjVgEOonuyrh4y0ILuzlYba8clMMoVWHYilGIUOXQ2IA30n++pTr3Y70MdHtG46V3aIJlgKSbL0iurjvrFkxnek0I930LErDxUF6/Thxuugfj1aJ/ty+GTddQatPxxL0VvnUz8nEZl0+pjOKScqy+jGdwPJhm+u0mNCEh0PX0ShLozNt55Oxxnj0N0uGd06/BnNX7CZUp61qEWeQ7vHNieBuT+9te4wnTwZRd/OCCAroQtNjioguR42qrMMPfxNt34r6OIyfzI0aEXDl0fSieSfKWH/lzTGU0wmQV80OGZUXFhIHQRGZGxsRa9GKlv8TFSTfQUkbh5MH26JoYSjW2leH0cSNgug5b8xitFzDNVqwzm7aWxzAZn7v0XrDp+kk1Hf0owAKxK6TKaoAjkzHHxHA234ZK70rwRKOh5Oi0JdSGTQmqYrFK6PDGS36PBn82nBptPKOl8W9A5kFDHPsw6B2ph07exbfusQLRgmoRZmIkZpYrJ070pjw45TljJ73UGsnG4dWkDDJC3ITMRnLuSW5N51LIUdz2LcS4GcCmLnUFd7MfF49jQ5RnG1KKH03XNoqK+T6hxjO2rbezptvlC1ILEpgQxTU24cLRvmQw6MsQkMzMml80hatDeBPuspJtNBW5R5tPLoAm2Z0Zva2BiRUGxNbQbOoXnDHclAc2ffknTaPWco+TqZkYi5KBvbtaXe0zdTTZMVF3QD6rN4C80MdmP6JSLTFp3pta+SKK+qvQwl6btpzlBfclLK1pjs2vam6ZsvVC/FrEdTAhkmNTduGQ3zcSBjgYAMzF2o88hFtDfhM+opNqVBW+4xefQJZBTo0FWdVUu6ddDIQIbp9dn57ZhAyIM++LnukgxdbWtKIKOghNIiZ1Foe0cyEQrI0KYN9X1/F6VVRVHlN2n/7AHU1taQsXcr8uz9HkX88AF5iZ8RyCh4cpl2zBxA3g4mJBQakY1nT5r4eRxlVzdMlx9p4xFd2DKDerexISOhmKzbDKQ584aTo0FVOxTo8jXtPLqwhWb0bkM2RkISW7ehgXPm0XBHAz0DGQW6ffxZdqDLR/QJZOQFsTSnqz2JeTyynxyjTNPpw03QQd16tAUygvaTKey/IeTG9Eds7kbdXv+KEmttIf2ELu+YSQO8HRh7E5KRjSf1nPg5xVUbh6526bP8mqEkjSJnhVJ7R8YGBYZk06Yvvb+rajUVg04bZWioDL38Tbd+mQsQHVowjCQtVHoSW7pT17FhdFx1AXo2sjRa0UlIXNvX6EDD5q0KZAz60OItMynYjalHZEotOr9GXyXlqcdU/cbQZ9pwWiTNCm1PjiZCEhjaUJu+79Ou6gFEIeodNHOANzkw3wuNbMiz50T6PC67Rm66ZCA9STNceCQMXqP6/JLAUfzDBCMsLP8uSvdjnON43PrwEs4saNPwM2kWlv8ppIh6vQVGXX0H537Vdyd0liYj/x1f9PDBujYHcO37/i/16p7/r+h+EMvC8g9QWfwAD8oAY1PTZ04aZmFhYXnRFP+6BbsuOGHkGyFsEPMvhQ1kWP5lPMWvX41Cr95LkMjrgJ5BVcvVWVhYWP4+5Hc2YKSXG9xe+QYFAxZgZkDVKlKWfxvsoyWWfxnlSD+0Fvsuy+H8ygS81s0B7J1zFhZNKpGf+hMuFjkjsKsbVNtksjx3nl7DoVV7kWbij1H/GQAP9nbMvxY2kGFhYWFhYWF5aWHv2rOwsLCwsLC8tDQqkCnNSsaOZdMxflhfhIT0x6tTFmFzco7e21k3hOxSBBYv3IjkQp27H71AZEjfG4aFaxI0NgPTjuzaPiyfvwDfHL/7jA3LGocsNRJLFn6LpOpN8JpIcSEeVe0JJUvH3rCFWJOgsSkfS6MoLnyksdEZSy00bU2TyjycXLcA85dF4kqpOo2lAYpRqFWQLweV93/Ctwvm4+Odl1CiTmMGNEQuWYhvk+6zYw/LC0fPQEaK9K0TIGnbE29/9wseihzh6myChz+vw7QQH7yy9BQK1TmbytO0Q1j5ZSTOPvonn3TJcCNmLb7ckVyzi6lWChH92XtYvu8eWnZ0fC5Lg59ei8KqLyOQ8rDp/Zee+RQhHSYgsioYkt1AzNovsSO5ZjdhFn2R4synIegwIRJ/Nbb8/0g9W9NAlroBs2dvxFmT9vBs/Euk/reQnsGnIR0wIfJlveDLkPbdHHy44RcYtW9Ts6rn6TVErfoSESkPlZuNsbC8SPQKZIp++ggj39mLitDv8dv18zi+eys2b9uLk1cvY8/rlvj1k4mYH/sy72/cSArP4Nf8Lli8YxWG2f17ns5Jr/2MM9nSmoHDYAh25Jfj/NL27ITZRiPFtZ/PIFvKDsPaqGdr1TAXtp+uwXrKBmyb2U795mKWZyK9hp/PZOOlNTPZNSSlm2Pi+u14vz2rbZZ/Bt5SBvXf2qnMxOY3p2DX0/EIj1mCwGbqdAVcU7TpZoubB+JxyzwAY3o6Ky+YlY9/R+KBH7DnYDR+TDqPW0XN0NLdFoaa1/zim4jbtQ2RR07hd6kNXEvjsfpIKYJnvIGu5oqMlXj8eyIO/LAHB6N/RNL5Wyhq1hLutoZao6+SX7cibEMKuO0laGlUs/NI8S9bELbxAsT+vnBS+Jn8Pi5H70L4niNIOH8HUgtXuFtVva5LhuuHv8G+fH9MGWaGlPCt2HMsBTeKzeHqbg2xutjKohxcvyuFo18I2lW/uVeG/EvR2BWxF0cSfkNmhRXcXC2VA7nisdHHa5PB9dZom+wSIpauQwq/I/ycxahI24+Vhx4jaNokdLNSlfk09ywORURg79FEXPhDCnNXd1Q3tQ5FKZuxfHM0Um48hLw8H4WidujklIW9K1YjQeYFf1dj1X4sOvqfvncF1l5ohgD7e4jasR17j53BjRILuDH9N9Dc0KXBcuqjjwxk6XuxYu0FNAuwx72oHdi+9xjO3CiBhZs7rGtVroHi8dmKdbhk1hm2dw9h27Z9OHEhFyLnNmhuUoGs5B+wZcdBJKQWopm7J+yqlKjgaS7OHopAxN6jSLzwB6TmVX0oQsrm5dgczej+oRzl+YUQtfODi7Hi3KfIPXsIEYyejyZewB9ShW1YqV/4JsPV3WFYf9kEro9jsWHHj8iQ2qG1u0WtN5dXU3ILCZHbsCsqCRkljL0Iz+LblSch7+gLZ7EcqZEfY20yF96SlqgRWQSWrksBX5lHlSi/fxnRu8Kx50gCzt+RwqIBO6lGp/5kyLsYjT279yPqRAoy7vNg5+YEU8bBtdqai7HC8fF74iEkZnJhyivAzdtFaNbSHba1HL8+svxLTPsZO2fa/1tmBazcXGGpcU1s0A+apH+Vna/5zQidLG9jz+btOHwqDQ/FzmjlYKQaXxSPRj5ei2SuNyQtjdR7GclwKWIp1qXw0dHXuXo80CV/Wd5FRO/Zjf1RJ5CScR88Ozc4qQSJzcs3IzrlBh7Ky5FfKEKvTi6qk55pm9pR+s6a32DUyRK392zG9sOnkPZQDOdWDjCqJf7naL8KG4qJQ4bMFAblD/FU04Yq0rB/5SE8DpqGSd2sGjeHgYWlsShWLTVI/mYaaMQjp7dOKN/rowvp5TU0wFFIhg4dqPsrr1D3Dg4k5gqoxbhIylbvcl1xfSuNdBGRwMyF/AL9qZWlBbXt4EYCYdUW6FK6vGYAOQoNyaFDd3rlle7UwUFMXEELGheZXb19viay659ToIEJ9dtYs70+0QOKfNWCRJ1XUDpTrPxBIi3ubkMCQwdqFxhMQd52JBY505B1l0m1i7xq62++fXvycTQnZ0kwBfs5kzFXRK0mH6KqXbplaWHkJzSncVV7z8v/pOj3JGTGMyRHn+4U3NmNzPhi8pi4hzKZerW+uqFkJw0zFKq3Zq+bR0aZB6aRjymPjJx8qWdIV/K0FJLQaSB9fU77S08KTyynMQGOxOM5UKdh42nBgax6W3vr239Rx/7U18mC6X936uHbnAy5BuTxVjTlq/uvu5z66CMD5Tbsoo7Uv68TWThLqHsPX2puyCUDj7couqryuij7aEgd+4RQc+tWFBAcSB7mfBI4j6HFs7uTo70XBfaQkJMRlwx95tNpdQNlmQdomo8p8YycyLdnCHX1tCSh0IkGfn2OiqiQTiwfQwGOPOI5dKJh4xfQgSymflkmHZjmQ6Y8I3Ly7UkhXT3JUigkp4Ffk0otqq3FRe5tydPOgwK6S0gy9SA9VNZYm4qb4TTOXUxCm3YUMqAX+ThYUtvgAI3XAGh5HQFDyc5hZFjtJ3J6kLiYutsIGH9rR4HBQeRtJyaR8xBad/lZmtBHf+V0ZXUfshWYkWunYOod7EctjHnUTLKAkph+arU16WVaM8CRhEyZHbq/Qq9070AOYi4JWoyjyCrHr4ec/ox+jyRmPDJ09KHuwZ3JzYxPYo+JtEfhOPr4QZP0r34VQrtg6sHIvVVQP+rTqQUZ8a0o6ONk1Zb2JXtoVDMhdfk0Q+M1AiW0c5ghCatfMaJb/uVXVlMfWwGZuXai4N7B5NfCmHjNJLRAJUhaPobROY9HDp2G0fgFB5TnNGyb2lG9wqAdBfdwIMtWQdSvTydqYcQnq6CPKblqW/3naL86bUir/FhYXgw6A5mKX+dRW76QgldnaQ0galNAO0eYk8BzBsVXW/8TSp7VlgQGfWiD4j0g8nu0Y5gFCVqOoZ03Ve+4keXE0HRvA+JUvZSuYCeNMBeQ54z4Gid6kkyz2grIoM8GqvU6kSrkf9DaXkZk1Hs9Ka45yqT8HTTMzJB6fH2LcaYiin3bhQSOw2lTWrEqA9O2c5/0JHPDzrQiVXGpVw1wXJ4jDd96kxnOVXl+mtmaBMahtCVfmVAvkHlydDI5Cayo76or6veLlNONjaFkI3ChGSeljQ5k5LnhNNyKTw5Dv6N0VRVMXxLoQ4kRibznUcozIsrCzQNIJOxF6/5UC6BWINOY/jvR6Ijb6sD1IXOeO/GNBtJmZf/1Kac+egcyXCZoHh1Bt9V9fBj7NrnzjWigqvL6KPvIJV7zUbTzD1XdRfHTyY3PIZHPLEosUMhCTvm7RzMXZheazuiDETCFD7civsNQ+q5GwJTwoYSMRN40TyngQto8QETCXutIJU455YYPJyu+Aw39Ll01WCvKTfiQJEYi8p6XwnxWXQi4gnY0+0yVbLQgz2P8xIoErq/T/ixVm+X3Yund9ho+oE8gUxRLb7sIyHH4JqpRxTn6pKc5GTLBu3ZV6KG/8iR6101Inu+fUtszc9aZeSSx8qB3jqrOqWtrBTtHkLnAk2bUOD7jsrOorcCA+mzIVafU4clRmuwkIKu+q+iKuqLyGxsplAkMXGacpFJ9/KAp+q+2c3savKHqnUCFlLI4gExEvrRY9eI43YGMTvmXU9K7biT0fJ9O1QiS5kmsyOOdo6Q8pXAzDRAJqde6P1Xjq162WZ8q37EfvKH63V2FKYspwEREvosvMp+eo/3qY0NsIMPyN6Lzjl+lrAIV4EAgMtDj9qApBq5MQsqRpQg2VydVcmDnaA++/DEKHxNQlIAjJ4vgNWEuRrupbljyHPph4fQe1bdqYToQK5NScGRpMGqKsYOjPR/yx4VQFFMPrhNeHRsM/un9OHRXMW2uEvlH9uGkPAhjRrUET5qEfVHZsOvRD15PUvHLL78wRxpkXXrBBxdwJPqWqhwGrsMgTBvnpr6daoLOPfzQ7GkusvO0rSwox+moWNyzH4FZb3lDNbdRCPfJm5CYchwLOzf+ufHjuEOIf9wGExdOQhv1nVqudQgWfDgAhhmHceBCE9aJNaL/PMdQTB3pop7fYI6gYF8YPc1D7n15o8ppEjxHhE4dCRe12MyDguFr9BR5ufdVCVrhwq7/RLzqrJoJZOzrAw8eH+1HTEKQpcJqubDw6QAXTiEePGD68DgOh+Ifo83EhZhUI2CELPgQAwwzcPjABVVaLR4j7lA8HreZiIWT2qhvxXNhHbIAHw4wRMbhA8oUBdzmPTHAt4Hds0pO4nACU/+4/2KIk6rNXNve+Oi/ITCs8gE9kCbtQ1S2HXr088KTVIUemCNNhi69fIALRxB9S8t6On30xzWDuSkh8+g3+Hx7HFLzymEc8Cl+u38d6wdq75fpwJVISjmCpTWOD46dI+z5cjwu1D5/rvx0FGLv2WPErLfgrZ4ULHSfjE2JKTi+sDOkevtBI/WvhucxAR9N8lL7rBm6vD8DfcSpiIm6pkzRhW75E8zMTUGZR/HN59sRl5qHcuMAfPrbfVxfP1D7dvdNsk01PA9M+GgSvNSyNOvyPmb0ESM1Jor59Bzt90WPASwsjaQ6NpFf/x6v9whEYKD66DEB32XIwbOzgw2nEgW5udC9QJAPMzsTPIr/Cm+O6IsgX084mlvAa24Sc7knVDLxhfxeFnJKuXBycdGYgMqFeSs3VE834ZvBzuQR4r96EyP6BsHX0xHmFl6Ym1QOUOUzZvczg9nQccxA9CsOHvwD8spcHN6XBE6vsRhuz0Xlo0xkPqjA3cg30S0gAAFVR8giJJZWIi87R10OU5KVDaw1lyLxBUxbZZBpFUApsrMLACc3uArUSQr49vCSeMK20as25Mi7m4Mynis8PGskpMDYvRUccQ/ZOY1fqtmY/nMsrWGl0X+uUATmBy7kckaHjSinSXAsYV27coj4HJBcy0W5Gg6sGDutPovLY/7mwMTMTD23gYHPV36v2P5RnncXOWU8uHp41p4EbeyOVo7APW19kOfhbk4ZeK4eqK0WY7irTlJ/Zqq3qC2/usjvZyO3hAuHFi1r+4CHO+waOK82lXiUmYkHFXcR+Wa3Gj0wR8iiRJRW5mm1E730x2+HmWtWoD8/EZ9M6oMOza3h7D8EM1YlIOsZMTTfzA4mj+Lx1Zsj0DfIF56O5rDwmguVy2r32NLsbBTACW61HQf2XhJ42ooa4QeN038VfLfWaK05+cPQGc42wJ93s9QJDaGP/IF2M9dgRX8+Ej+ZhD4dmsPa2R9DZqxCwjME2STbrILvhta1OwRnVYeeq/2+8DGAhaWR6LzJwmveBf4uhOtnTiNP23gkv4M1A93g+8Z23KrIQsRr3dB/3kHkWPoxv6wXYWPMFdzcFKr+BcAMOYaGEDMXxZLi4toBibQcT9WDTGVWBF7r1h/zDubA0i8UUxdtRMyVm9gUWlXKM7AMxbiBpjh78CBuZh7CvtMG6Dd2sDJA4ooMIOIK4L88HTLVIzWNQ4Y760PUhTBwODUDoE6EEBswI0NZKUo17xRVFuLWpVRkFioGW0V5TACm+X25FOVMYFAfDsRiA3AqS1BcXFvg8uInKGEkKTbQqbZ6PK/+N6qcWugrAyZfI+5KqOCAx9VfJhyxGAZMcF7PBuXFeFICGDDyrwdHzMid6UFJMWqrRY5i1UnqzwwcLrgN9IFn3AzGPMYHiopq1U9ljDw0xaEQBBME1BZZOVQi40JkIAJX4I/l6bI6emAO2R2sD6l/N1A//TFBVeBsHEzPRea5aHy/bAq6GachfFYoBoed1bJvVCWyIl5Dt/7zcDDHEn6hU7FoYwyu3NyEhlxWyMiZjzKU1nYcFN66hNTMRxDo7QeN038VJC1DWS0FFKGIUaURox8FKvHXkj4zTMnV+tBP/lzzQMw+mI7czHOI/n4ZpnQzRlr4LIQODsNZLbFMk2yzCpKirHaHUKTqkKLg52a/TR8DWFheDNXez/Ocih1Jp3H6tPpIisBbrZmwXNgF40e3Q0XSWnyRWH+3mEc/fYMNcXdRatUKDg9iEB6dj7bv70H0phWYO+01DOrmgpz068zgx1zEGAfi2naGvxvhUvyPGpvOSXExKUW9d0sl8mPCEZ3fFu/vicamFXMx7bVB6OaSg/TrjOczhdTyw1qYoM+4QbC+EI0tG/fjV1MmsBmgvtVt4gtJa+BqTBQyNH6oym9tx9uDRmLJsYYeXTSEATpK2oLzezKSsmvuGsgzwzE1MABTf8gD14BxfHqEgoKa70svXkSG1psMXNj7+cKZziM2Jlejr1JcOJ6IbIEXfNtrXUPAjD8NDObPq/9NLKdxMnixcO394OtMOB8bg1wNY5JeOI7EbAG8fNsznzioJU6uPfx8nUHnYxFT+yQcT8yGwMtXnaAHFp3RxQu4ciIWyqegSspxKfEM8qrlwYUBc6GkRwWoEVkpLl7MqN6A0cRXgta4ipioDI27pXLc2v42Bo1cgmPaNsDRQ3+V92MRNn4UlsZVwEESisnzv8au+COY4ytHxrlLUDwoqmVrlfmICY9Gftv3sSd6E1bMnYbXBnWDS046VC6rpR0MBh0laMv5HclJ2dV9YhwH4VMDETB1D7i+TfMDfZFdTsTJgpqSS8+ewKl8U/gHeisMFgYiwqOCgpq2lV7ERQ2D1Sn/vDzEho3HqKVxqHCQIHTyfHy9Kx5H5vhCnnEOl1SCrBmEGfSzzWcgu4zEkwU1sio9ixOn8mHqH/h87feFjaUsLE2EiaJ18zCe3vc2JJ6ZD41fsZtOpf1BOXcu0fH1b1MXKx4J3SfTIcWSnuJomuTIJxPJdIpIvkyp5+IofPFgcjcWEF/gTQvOKSbjyejO1qFkxzcjyZRVdCA2RpnH1YBDUE90LI6eRI58E5JMj6Dky6l0Li6cFg92J2MBnwTeC0hZzLOQnqL3PETEXASo5bS46smKioltWbtGM+WKyX3IItoWnUBxe1fSGz7NiG87hLbcYX5bqCcBCn2X0GWNOsqOTCRbYQdapJgEyFB3sq88ZzeNbS4gc/+3aN3hk3Qy6luaEWBFQpfJFFUgJ3nWBurXjEdWQbNo+/FEOh6+mIZ4WJOpoUj7qiXZDfpuoA3xzSU0ZdUBSkg6TuGLQslFZECtpx+nB8oz6lO2byyZ8R0p9OMddOzKQ8UMQI3Jvn+h/4cmkKVQQkuvKBL1Kac++shAtfLCl5bUrpwmWApJsvSKOqEOtfqo5tFWChUJKWRtzQo22c0vKFBoRqP3KixCRje+G0g2fHOVDSYkMe1ZRKEujN20nk7HlQIuo31jzYjvGEof7zhGVx7KGbV8RwNt+GQumUKrDiRQ0vFwWhTqQiKD1jRdeZJqsqTQL4zStItBjZz+3DuBnAWm1OGNr2jf8RjauXQouYm5GpN9GTlv6EfNeFYUNGs7HU9kbGDxEPKwNiVDkTqPPIt2jXYkvtidhizaRtEJcbR35Rvk04xPtkO2kHZV6KG/iou0zN+QDFoNp+WRJyj55wTa/+UY8hSbUNAXacrJm7Vt7S5FT2LaYSKh6RHJdDn1HMUx+h3sbkwCvoC8F5xTVV0XeQ7tHtucBOb+9Na6w3TyZBR9OyOArIQuNDmqgOT6+EGT9K+e7Mvhk3XXGbT+cCxFb51P/ZxEZNLpYzqnmE/LyHZDv2bEswqiWduPUyKj68VDPMja1JBEVZN9dcq/gi4u8ydDg1Y0fHkknUj+mRL2f0ljPMVkEvSFykbK9tFYMz45hn5MO44pbFwf26yParIvh/jWXWnG+sMUG72V5vdzIpFJJ/pY2SHFsPL87FenDdWd7Cu7RYc/m08LNp1WlsDC8jzRL5BhkOWcoLDh3mQhYAIOxT1L5uDwTMi931w6eEu1vkdh4Llxy2iYjwMTdAjIwNyFOo9cRHsTPqOeYlMatOWeOt8jurBlBvVuY0NGQjFZtxlIc+YNr1l6Ks+luGXDyMeBGQgFBmTu0plGLtpLCZ/1JLHpINpStQ5aKxV0dn47ZgD1oA9+rmpXFSWUvnsODfV1IjMRExQZ21Hb3tNp84Wq9YlNC2QUlKRF0qzQ9uRoIiSBoQ216fs+7apaPkDldHP/bBrQ1pYMBWKy8uxN70X8QB94ibUHMgqeXKYdMweQt4MJCYVGZOPZkyZ+HkfZGu2qi7wgluZ0tScxj0f2k2MUo1udQb6J/a8VyCjQVY42dMvg7wtkFDyhyztm0gBvBzIRCsnIxpN6Tvyc4qoFLKeC2DnU1V5MPJ49TY5R6frJ5R00c4A3OTB6FhrZkGfPifR5XLa6bn0vBArK6NruWdTfy4bEQmNy9P8PfTW3D/N3VSDDUH6T9s8eQG1tDUkgtiLP3u9RxA8fkJdYI09JOu2eM5R8ncxIxAQNxnZtqff0zdSgKvTQX/mtQ7RgmIRamImYHyFisnTvSmPDjlOWutq6tibPjaNlw3zIgfnRIjAwJ5fOI2nR3gT6rKeYTAdtUZ2kjZI0ipwVSu0dGTsXGJJNm770/q6qlUQMuvzgLwQygvaTKey/IeTG9FFs7kbdXv+KEjWWRJbf3E+zB7QlW0MBia08qfd7EfTDB14krl5+zaBL/uW36NCCYSRpofpebOlOXceG0fEaQVLsnK5kL+YRz36yKk2nbdZH6TuC9jQ57L8U4sbUJTYnt26v01eJudUyUPD87FeHDdUNZKQnaYYL86M3eI3yaxaW50mj33799MEtpF7LRGGFAWw9OqCto3oDKRYWlr9E6a7hsJ5UgGUZiZjlovesX5ZGI0XU6y0w6uo7OPfrUrSvPZf4pUQa9TpajLqKd879iqX/HzrEwtIIGh2DCC3dIOkWgleCu8KbDWJYWFhYWFhY/kHYOISFhYWFhYXlpaXRj5ZYWFheDJW5F5Fw5Sla9eiMljp2GmD5K1QiP/UnXCxyRmBXNxirU19mKvNT8dPFIjgHdoXb/4cOsbA0AjaQYWFhYWFhYXlpYR8tsbCwsLCwsLy06A5kKnMQ+80CLNx+DlJ10kuD4hX/YQuxJuFeA5voKZDh2r7lmL/gGxy/W7PhVdORITVyCRZ+mwRte5I9T4oLH1VvxqV4lX/YwjVIqNlpkEUrMlyKWIyFG5NR+FxFVYzCRxo7hLH8S3lR+n8B6D2GsTQJrfJ9yfxYdgkRixdiY3L9DWv/V9AjkPkTp7Z+ia/2XXkJA5kbiFn7JXYk5zc8CBRG47P3lmPfvZbo6Pg8lr0+xbWoVfgyIgUPX9iDOynOfBqCDhMiq4Ml2Y0YrP1yB5JVWySzPJOnSDu0El9GnsWj56Uf6Rl8GtIBEyLvsxecfz0vQP8vCn3HMJamUVe+L6MfP03DoZVfIvLsI3XC/x7soyWGwjO/Ir/LYuxYNQx2L41EpLj28xlkS2tGYoMhO5Bffp7dR+KfQHoNP5/JhoY6WFj+OgZDsCO/HOeXtq/9EkmW50Nd+bJ+/FLCW8qg/ls7lX8i4butSDENxYfjfatf/lifp8g9ewgREXtxNPEC/pCaw9XdqlZ+Wd5FRO/Zjf1RJ5CScR88Ozc4mWpzzxL8ujUMG1K4aC9pCaPqF5gV45ctYdh4QQx/XycoXoknv38Z0bvCsedIAs7fkcLC1R1WVZXKruPwN/uQ7z8Fw8xSEL51D46l3ECxuSvcrcVQFVuJopzruCt1hF9Iu5o3cMvycSl6FyL2HkHCb5mosHKDq6WiRsVjo4+xNpkLb422yS5FYOm6FPA7+sJZLEPa/pU49DgI0yZ1g5WyzOcpnyKkbF6OzdEpuPFQjvL8Qoja+cEpax9WrE6AzMsfrsaqhjUsn3TsXbEWF5oFwP5eFHZs34tjZ26gxMKNkY+BWj4qGipH8UhrxdoLaBZgj3tRO7B97zGcuVECCzd3WBtollIfWf4lptwI7GXK/S2zAlZurlCKWc3T3LM4FMF8fzQRF/6QwryJ7S++GYdd2yJx5NTvkNq4ojR+NY6UBmPGG11hkhaJj9cmg+stQcsahSJi6Tqk8DvCz7nqhXoy5F+Kxi5Gh0cSfkNmhRXcXC0hKkrB5uWbEc3Y1kN5OfILRejVyUV5RsPtv4rdYetx2cQVj2M3YMePGZDatYa7hVAhcFxm7C98D2N/5+9AasHYbPWJCmTIuxiNPbv3I+pECjLu82Dn5gSt5tIQJbeQELkNu6KSkFHC9Ed4Ft+uPAm5wo4FVxH58Vokc70haWmklqfiscxSrEvho6OvM8RqcTVoZ/WQIX3vCqz5zQidLG9jz+btOHwqDQ/FzmjlULU3lT5+pkrUp+6G9G+u9vkXY+OVePx7Ig78sAcHo39E0vlbKGrWEu62hjW/ImV5uBi9B7v3R+FESgbu8+zg5mSqurAqbXw1EmRe8Hc1VuugBLdP7sb2XYeRePURTFs2Q+qWLxBV6IkAd0OlbNdeaIYA+3uI2rEde4+dwY0SC7i5W0OzqZWPf0figR+w52A0fkw6j1tFzdDS3RaGyobJcHV3GNZfNoHr41hs2PEjMqR2aO1uAa7OcUqO+5cZPwnfw/jJedyRWtQb67TRoK88i4bsVyzXbUOCazXytU7FFq1+rEOHz/Rjrm4f1enn2ijGzbhd2BZ5BKd+l8LGtRTxq4+gNHgGJnZVv1uwsTqQper2dbn+4+3fjmLVUoNUnKX57QQkGrCZCtVJ9ZBl0oFpPmTKMyIn354U0tWTLIVCchr4NZ0rUmUpv7Ka+tgKyMy1EwX3Dia/FsbEayahBUnqDLWQ0fXPA8nApB9tzNHYYPtBJL1qIaLOK9KZHHJ6kLiYutsIyNChHQUGB5G3nZhEzkNo3WX1qwOU25fzyb69DzmaO5MkmKnX2Zi4olY0+dA99dbdMkoL8yOh+TiqeuOA/M9oek9iRjxDR/LpHkyd3cyIL/agiXsymdwltGdUMxJ2+ZSq3iagoGTnMDKs3l6+Tp7nLp9COrF8DAU48ojn0ImGjV9AB7Lkdbb411c+IurYvy85WTDy6d6DfJsbEtfAg96KzlfLR3c5ynpFHal/XyeycJZQ9x6+1NyQSwYeb1F0vuYG6ZrI6c/o90hixiNDRx/qHtyZ3Mz4JPaYSHsylUKjzAPTyMeUR0ZOvtQzpCt5WgpJ6DSQvq4Sml7tr6DrW0eSi4iRrYsfBfq3IkuLttTBTUBC9Vbz9V4PoaBkJw0zFFa/PoExCop+T0JmPENy9OlOwZ3dyIwvJo+Jeyiz4AQtHxNAjjweOXQaRuMXHGBO0Kf9+2mcuYjc23qSnUcAdZdIaOrBhyR/kEiLu9uQwNCB2gUGU5C3HYlFzjRk3WVSSbycrqzuQ7YCM3LtFEy9g/2ohTGPmkkWkFZzeQYVN8NpnLuYhDbtKGRAL/JxsKS2wUw/ql4VUnebeSUltHOYYbXs9LKzeqhfhdEumHowdbYK6kd9OrUgI74VBX2cTKpN7vXxM33q1q3/F2fjUrq8ZgA5Cg3JoUN3euWV7tTBQUxcQQsaF5mtss/yK7S6jy0JzFypU3BvCvZrQca8ZiRZkERKVdZ9BYPsFu2c4EFifjNylgRSJw8raubSlfybC6nd/LOKE5SyFXXsT32dLJg83amHb3My5BqQx1vRVNVU6eU1NMBRyPS3A3V/5RXq3sGBxFwBtRgXSdnKPKrXFYjc25KnnQcFdJeQZOpBuqdrnJI/oMTF3clGwPS5XSAFB3mTnVhEzkPW0TPNQR9f0YJO+9XHhjTlW6jNj/XQoVY/vqfTR3X7uRYqrtPWkS4kYsp18Qsk/1aWZNG2A7kJNMeqJuhAH1/Xa7z9Z3gOgYyccsOHkxXfgYZ+l65WgJzyEz4kiZGIvOelMJ/LKeldNxJ6vk+nql6iUnSG5kmsyOOdo1SsTtJE/sda6mVkRL3XZ6kFxJS5YxiZGfagr28xUi2KpbddBOQ4fBOlVRXw5Bx90tOcDDuvoFSF1ysFzyWe43DaelP93qUnP9HM1gIyDt1C+cqEuoHMEzo62YkEVn1p1RV1Y8tv0MZQxuBcZtBJaWMDmRcjH0Uws3mAiIS91tGfaguqFcg0Rj5OoyniturFcvSQOc+dT0YDN6vko0c5ynq5PHIaHUE1xbxN7nwjGrhZJeV6PDlKk50EZNV3FdWIeSOFMhcTlxknqTQ3nIZb8clh6HeUrnY+eX4CfSgxIpH3PEpR1KNH++X3dtAwCwG1HLOTVCYgo5yY6eRtwCFBIwKZJ0cnk5PAivquusJoV0E53dgYygwWLjTjJFN34WYaIBJSr3V/Ku1Vrlf7FQMglwTtZtOZaiUXUezbLiRgbHZTjcDp3Cc9ydywM61QCLw8id51E5Ln+6fUbVGYyzySWHnQO0e1W0s95Hm0c4QVCVxfp/1ZCmNQyCqW3m1vUPPiSn0GN33srB6qiy2XZ0+DN1S9V6mQUhYHkInIlxYr32mmh5/pUbc++n9hNl6wk0aYC8hzRjw9VCfRk2Sa1VZABn02kOK1TuVJ75Kb0JPer3F8OjNPQlYe75BSlZoXWsay7kWMICuBM43ecZ25xDLIcin2PV8y5AhqBTJcnhONjritysPUHvu2O/GNBpKqqQWM7s1J4DmD4msaRsmz2pLAoA9tUL5vShXIcAXtaHa1ceoep4oYmbgIHGn4prTqcevJuU+op7kh8wM0VZ1SG718pS762K8+NlRLvgx1/FgfHWr1Y50+qoef14PRP3MNtBC0pDE7bzLaYJDlUMx0bzJg9F81VjVFB/oHMjquF/8Q1Xc3m85jxB2Kx+M2E7FwUhv1rSsurEMW4MMBhsg4fED52czcFJR5FN98vh1xqXkoNw7Ap7/dx/X1A2GkPKc2XKdXMTaYj9P7D+GuYtZVZT6O7DsJedAYjGrJgzRpH6Ky7dCjnxeepP6CX35hjjQZuvTyAS4cQfStqtVHXDgMmoZxbupX/pt0Rg+/Zniam408bRPTy08jKvYe7EfMwlvehqo0oTsmb0pEyvGF6Kzx2EM/Xox8dKG/fHhwDJ2KkS7qjpkHIdjXCE/zcnGfyaJ3OTxHhE4diZpiguFr9BR5udpf6V9+Ogqx9+wxYtZbqBHzZGxKTMHxhZ0hjTuE+MdtMHHhJLRR3w/lWodgwYcDYJhxGAcuPFUl6mh/UcIRnCzywoS5o6EyAR4c+i3E9B5Vjxb1oRyno2Jxz34EZr3lDVVzhXCfvAmJKcexUItRPNa7/Vw07zmAkZX6ozQJ+6KyYdejH7yepKrk/UsaZF16wQcXcCT6FnOKGcxNCZlHv8Hn2+OQmlcO44BP8dv961g/UE9rKTmJwwmP0WbcfzHESXWvm2vbGx/9NwSGjbhHrL+d1YfnMQEfTfJSy9MMXd6fgT7iVMREXVOm6EKfuvXR/4uycZgOxMqkFBxZGoyqG/6VHDs42vMhf1yIx6RQpTlMKRNHv/kc2+NSkVdujIBPf8P96+tRX5WP8eOBE3jcfjIWjfNQPloHzw59F3+AfqbKDNXwHEMxdaSLKg9Te1CwL4ye5iFX4RQwxcCVSUg5shTBNQ2DnaM9+PLHKFQ0TA23eU8MqDZOXeOUFEn7opBt1wP9vJ4gVWm7vyBN1gUqUUary6mN/r6iwXOyX53ooUMVdfxYl4/q4+f1KELCkZMo8pqAuaPdmBGIgeeAfguno0fVM94m6kB/Gh5v/ymqAxn59e/xeo9ABAaqjx4T8F2GHi2T5+FuThl4rh7w1Hz2B2O4t3IE7mUzf/PRbuYarOjPR+Ink9CnQ3NYO/tjyIxVSMjSYqQKuHYYOq4PxL8exME/5KjMPYx9SRz0Gjsc9txKPMrMxIOKu4h8sxsCAgKqj5BFiSitzEN2TlWUwoWVjTUj/hr4AqahMhm0LrArzUZ2AeDk5gqBOkkB394LEk9b9aDbCF6UfBqkMfLhwNLaSkM+XAhFfHBIDjk1ohyOJaytNKTMFULE54Dk2m2oNDsbBXCCm2stKcPeSwJPWxHy7uagjOcKj9pCg7F7Kzjinp7tl+NeVg5KuU5wcdEoh2uOVm42Ncavk1Jkq4wCtZtrDy+JJ2zrGYW8Ee3nwkKj/ZWPMpH5oAJ3I99ENw15B4QsQmJpJfKyc5h622HmmhXoz0/EJ5P6oENzazj7D8GMVQnQ11zk97ORW8IE+S1aquZiKOHC3MMddprO0iCNsbP68N1ao7X694USQ2c42wB/3s1SJzSEPnWX66H/F2fj4JvBzuQR4r96EyP6BsHX0xHmFl6Ym1QOML6l+H3GbzcTa1b0Bz/xE0zq0wHNrZ3hP2QGViVkoZ4qZdm4kyWF0NkNmt2BkTtaOdS2Zo6lNWo3VQQ+hyCXK668fJjZmeBR/Fd4c0RfBPl6wtHcAl5zk5iQnVCpsVyHa6FZjo5xqvIRMjMfoOJuJN7sViPHgIAQLEosRWWeYqyrS2N8pYbnY796oIcOVdT2Y10+qpef10V+D1k5pcyPfJda+ueat4Jb1eTOJumgMTQ03qqT/gH0H8ufBUcMsQEHlSXFKK61Xk2O4iclgIFqoiTXPBCzD6YjN/Mcor9fhindjJEWPguhg8Nw9hmDr2XoOAw0PYuDB28i89A+nDboh7GDFQMQFyIDEbgCfyxPlykej9U+ZHewPkQdMTJwOI0I0YViGDBGUlZayrh0DZWFt3ApNROFCp9SlMd4u+b35dJy7Yp8gfJ5Ns9LPo0ph6MUi74IxQbMAFSG0tJaUkbhrUtIzXwEAfM9p7IExbWFBnnxE5TAgJFpjek+u/0cGBoyv7ypfjnS8qca+mPaztRdWVuhKK9WqJCpT2kUqN3cQty6lIpMpVFowoG4Me3ncpkzVHBFBhBxBfBfng5ZXXmTDHfWhyhywTxwNg6m5yLzXDS+XzYF3YzTED4rFIPDzta/AGqBZ9wMxjxCSVGRxmDMjM1lTL81+qgy9VqCYWQnV8uucXZWF5KWoaxW5UUoYlzCiGmbkgb9TJ+6DfTQ/4uz8cqsCLzWrT/mHcyBpV8opi7aiJgrN7EpVH3bQQETVAXOPoj03Eyci/4ey6Z0g3FaOGaFDkZYXcfnGILpDmSlJYznaEBlKCnTlBID09BnNrUyCxGvdUP/eQeRY+mH0KmLsDHmCm5uCq0/GZTDjLYaBTU4TslEMBBxIfBfjnRZHTkyh+zOenUpmjTOV6rQ134btiHd6KVDNZp+rLCrhnxUppef10GpfyZwrnctYfr8VN0hblN0oKJhX6+hUdfTv4lqC+F5TsWOpNM4fVp9JEXgrdZ6hLZce/j5OoPOxyImV0O60gs4npgNgZcvI537iA0bj1FL41DhIEHo5Pn4elc8jszxhTzjHC49Vp9TF5M+GDfIGheit2Dj/l9hygQ2A9T390x8JWiNq4iJytC4syLHre1vY9DIJTjW1J3oDDpC0paD35OTkF39Q0uOzPCpCAyYih/ymCzMwEePClBQ/X0pLl7MYHJp4YXJhwPGb57J85LPi5KzQUcJ2nJ+R3JSdo3c5JkInxqIgKl7wPX1hTOdR2xMrsZAJcWF44nIFnjBt73mT/lnwYVtZ3+40SXE/6ix4ZX0IpJSavbl4Bowgwo9QkGNQlF68SJqbkgaoKOkLTi/JyOpxiiY5oZjamAApiqMQjHgq9MV9dr7NbH9Jr6QtAauxkQhQyM+kt/ajrcHjcSSY/cZc4lF2PhRWBpXAQdJKCbP/xq74o9gjq8cGecu4VnuVAuLzujiBVw5Eat6dKukHJcSzyCvqotcA2ZQJDwqKKjRUelFXNS4U/tX7EN2OREnC2q+Lz17AqfyTeEf6M184ur0M911Qy/9vxgbr0R+TDii89vi/T3R2LRiLqa9NgjdXHKQfl3xk1zxa74S92PDMH7UUsRVOEASOhnzv96F+CNz4CvPwLm6js9zQhf/lqi8xMjtgTqN4Wn6SZzO1vPKzFCZH4Pw6Hy0fX8PojetwNxpr2FQNxfkpF9ngmCmVc/qrs5xygS+KuNFVG3jxfa3B2HkkmPqBE2a6Cv62K8eNlSPWn6sjw61o9NH9fDzenBt0dnfDXQpHj9qbHoqvZiElOq9w5qiAwY9fP1fDROlNYx6sq9A8g5tjYykSM3jh72U/IeMZDe+o4E2fDKXTKFVBxIo6Xg4LQp1IZFBa5p+/IGiELq4zJ8MDVrR8OWRdCL5Z0rY/yWN8RSTSdAXlFYzu6ge0lPvkYfIgAxELWlaXNW0KQZ5Fu0a7Uh8sTsNWbSNohPiaO/KN8inGZ9sh2yhO9WTkzQmcikpoyMTbUnYYREp5xRS3cm+csrZPZaaC8zJ/611dPjkSYr6dgYFWAnJZXIUFcjllLWhHzXjWVHQrO10PPE4hS8eQh7WpmQo0j7J7MXIp4z2jTUjvmMofbzjGF15WGfV0l+Qz6EJliSULKUrikQ9yqlVbxVlh2iCpZAkS6+oE+ogz6HdY5uTwNyf3lp3mE6ejKJvZwSQldCFJkcVkFx2g74baEN8cwlNWXWAEpIYOS8KJRfGFlpPP04KqenVftkd2jrUjvhmqnJiY8Jp8WBXMmB+2FRN9pRnbaB+zXhkFTSLth9PpOPhi2mIhzWZGoqqJ9DJc3bT2OYCMvd/i9YdPkkno76lGQFWJHSZTFEFcqbafTTWjE+OoR/TjmNMn/Vqv2KSoJD8wtIYK6yCsa9do8mRLyb3IYtoW3QCxe1dSW/4NCO+7RDaohB4xUVa5m9IBq2G0/LIE5T8cwLt/3IMeYpNKOgLVVmyjP20Yv4C2vKrhs/UQk5/7p1AzgJT6vDGV7TveAztXDqU3MTcmsmSjO439GtGPKsgmrX9OCUydrt4iAdZmxqSqGoCoD52Vg/1hFQOn6y7zqD1h2Mpeut86uckIpNOH9M55TxCPfxMn7r10P+LsvHi6EmMHk1IMj2Cki+n0rk4Rd3uZCzgk8B7AZ1jiqq4uIz8DQ2o1fDlFHkimX5O2E9fjvEksUkQfaFw/Do2LrvxLfWzFJBt0Lv07eETFBOxlIa1MmRkKaB2H51jcqhXhPkuodpNnUCWQgktVThFcTRNcuSTiWQ6RSRfptRzcYxsB5O7sYD4Am9aoGgYU45isq/QL0xj/NE9TsmzdtFopmyx+xBatC2aEuL20so3fKgZ35aGbLmjLqcO+vhKPfSwX31sqO4YUseP9dGhVj/W6aN6+LkWZHe20lA7PpkpryWxFMOMVYNdDYiDmsm+TdKBPr6uz3j7D6F3IKOIeeodHAMaGqEaKJ9c3kEzB3iTg4mQhEY25NlzIn0el13T4fJbdGjBMJK0MCMRX0BiS3fqOjaMjmdpV1g16vr5Hh/Qz+qFR9WUpNPuOUPJ10lVprFdW+o9fTNdUK3ffKbgGw5kFJRQWuQsCm3vSCZCARnatKG+7++itKprQvlN2j97ALW1NSSB2Io8e79HET98QF5i7YGMgucvHzkVxM6hrvZi4vHsaXJMWf3BtonyqWeYOsppUiCjoCSNImeFUntHExIKDMmmTV96f1fVKhaGJ5dpx8wB5O3AfC80IhvPnjTx8zjKrqpG3/Y/ukBbZvSmNjZGJBRbU5uBc2jecEcyqHJQKqeb+2fTgLa2ZCgQk5Vnb3ov4gf6wEtcs6SRoSQtkmaFtidHRocCQxtq0/d92lVlFPICip3TlezFPOLZT1al6Wy/tkBGQQml755DQ32dyEzEDJjGdtS293TaXK04hbkcogXDJNTCTMRcfMRk6d6VxoYdpypzkR6bQo48EfXbVKBK0EoZXds9i/p72ZBYaEyO/v+hr+b2Yf6usmOFqe+n2QPakq0hY5NWntT7vQj64QMvElfLjkGXndVDdbEVtJ9MYf8NITemD2JzN+r2+leUqFwGokannzHoU7dO/TO8CBuX51LcsmHk42BMAoEBmbt0ppGL9lLCZz1JbDqIttxT9LWcbh1aQMMkLVS6FluSe9exFHY8S2UT9WxcTvnJX9OEgJZMfiEZO/rR+C8W0zAmuPFZfElxgu5AhikjN24ZDfNxYC7IAjIwd6HOIxfR3oTPqKfYlAZtuac4Q0sgw6DHOFWSvpvmDPUlJ6VtGpNd2940ffMF9bL6Z6DLV7Si23512lBd+db1Y310+Aw/1uWj+vi5Nh5d2EIzerchGyMhia3b0MA582i4o0HtsaoJOtDp6/qOt/8A7NuvWVj+X/IUv8zthlU+idg9Vs+VTAylu4bDelIBlmUkYpbL85w1qYkUUa+3wKir7+Dcr0vBbkStL5V4dCcNfwpbwtPRpGbCZeE2DG7+Noo/u42T/3VUJ/5v8vfYL8u/jQZmWbCwsLysyO/sx7ozbTA8uGpXYpaXH8K9H6ago9cIbLhdNf9BiqtbdyK5wgNdOtuq01hY/rdgAxkWlv+H8BxfwZcHt2DUy/PyMBad8ODx+od4ze40PvDzQsArfRDi54GA+ZfgOesbzPJjb22x/G/CPlpiYWGppjL3IhKuPEWrHp3Rsv4K0+dEJfJTf8LFImcEdnWDsTqVRU+Kb+HkoWicvlEAmaEjOrwyHIP9bDX2U/nf5e+xX5Z/G2wgw8LCwsLCwvLSwt53ZmFhYWFhYXlpYQMZFhYWFhYWlpeW5xzIyJC+NwwL1yRAY+NBrciu7cPy+QvwzfG7z95lsRHIUiOxZOG3SGrqjr4sLCwsLCwsLx3PPZC5EbMWX+5IRvWOyVopRPRn72H5vnto2dFR4wVUTefptSis+jICKQ/ZKT8sLCwsLCz/K/wzj5YKz+DX/C5YvGMVhrHLQ1lYWFhYWFiaSHUUUfLrVixa8C1+qvNopviXLVi0cDNSitQJ8vu4HLUJX3y8BMtWbsWPGdpfUVdZcAmHvv0ESz/+At8fTUehRrGVFYZoLmkPV1PNzbpkyL8UhU1fLsOSZSuxPf53VFWp9bGR7BIiFi/ExuRCdUJ9nuaexf5vP8PSJWH4etuPeEZTWVhYWFhYWF5WFMuvFciuf06BBibUb2MO1bzt5AFFvmpBos4rKF1GJH+QSIu725DA0IHaBQZTkLcdiUXONGTdZVK9pkj1ng++fXvycTQnZ0kwBfs5kzFXRK0mHyLlq0UYZGlh5Cc0p3FVLzeS/0nR70nIjGdIjj7dKbizG5nxxeQxcQ9lMvWW7BlFzYRd6NOqFxcpKNlJwwyF1e+XqJ1HRpkHppGPKY+MnHypZ0hX8rQUktBpIH19rkiZn4WFhYWFheXlp/qODM99NMYEViL5wGHkqG98VN4/in3xUnQZPQYevGLELZiET291w/pzvyP155M4deV3nFriglNz3sTXV2teGV6Z/wCuYefw+28ncfJcKo7+1wV/7NmCGI1Xz2tSdHwR3lmfic4rf8HvF5Nw8pd0nFvXC492zsOXp8rVufSn8l4k3n/re+QHf4tzv59HYsJppF87jndtfsL8SSvwS+OLZGFhYWFhYfkXUjNBheuEV8cGg396Pw7dVUQylcg/sg8n5UEYM6oleNIk7IvKhl2PfvB6kopffvmFOdIg69ILPriAI9G3VOUwcB0GYdo4NwiVn0zQuYcfmj3NRXZeTbBTQzlOR8Xinv0IzHrLG4bKNCHcJ29CYspxLOwsUqY0hsdxhxD/uA0mLpyENurdHbnWIVjw4QAYZhzGgQtPVYksLCwsLCwsLzUaM225sBs6Dn3Ev+LgwT8gr8zF4X1J4PQai+H2XFQ+ykTmgwrcjXwT3QICEFB1hCxCYmkl8rJz1OUwJVnZwFpzKRJfAD5kkGmLY1CK7OwCwMkNrgJ1kgK+PbwknrBVRTaNQI68uzko47nCw7P2pt3G7q3giHvIztHaEBYWFhYWFpaXjNpLhixDMW6gKc4ePIibmYew77QB+o0dDBsmF1dkABFXAP/l6ZARKebWaBwy3Fkfoi6EgcMBR/2nboQQGzABR1kpSjVXTlcW4talVGQWKoIORXmVqNT8vlyKcrm2pdYciMUG4FSWoLi49sRlefETlMCAqa92t1lYWFhYWFheTupc0U3QZ9wgWF+IxpaN+/GrKRPYDDBXf+ULSWvgakwUMjRuaMhvbcfbg0ZiybH76pTGYoCOkrbg/J6MpOyarfHkmeGYGhiAqT/kgWvABFH0CAUFNd+XXryIDK076XFh7+cLZzqP2JhcJvypQooLxxORLfCCb3vVQy8WFhYWFhaWl5t6tyYMe76G4c1/xdo1v8B68Dj0qno1Lb89psweDotzyzD01cXYfvQk4vd9jSmvzsSWcxVw9rJQZ2wsPLSe+AFGmJ3C4lHTsT4qEYlHNuC98ctx2nYMZoy2h7BjF/iKbyHio4+wI/YnxEYswbhpe/FAqP3OirDrdHzYR4Djs4fgrdUHcfJULCIWj8T41bfgNnE2xrVQnCfH7ajP8dHC73GGXZbNwsLCwsLyUlI/EhAFYNyIVpDLnDF8fHf15FsFXDiN24q4nf9Fu7vb8f6rfTFg0pc4Zz0BG4/vwKSWTd+fl+swGpt/ZMqwTcGnE/qh79ilSGg2AduOrsFgSy64TpOwbusH6PRwJ94ZPAATVqTAZdEaTG6pPZABzx1v/hCHLf+xxa9fvIH+vV/Fh3uL0XNZNOJX9YMq5JIhM/47fPHlDzhf5xEUCwsLCwsLy8sBR7EGW/03CwsLCwsLC8tLxTNuabCwsLCwsLCw/PthAxkWFhYWFhaWlxY2kGFhYWFhYWF5aWEDGRYWFhYWFpaXFjaQYWFhYWFhYXlp0TuQkWYm4vslb2HUwFcQ8soADJ84G18fTMWjF7FyWXYJEYsXYmNyoTpBN7Kru/HxwnVIzP+XLKVuQh8USDP2YsH4/ggJ7oNxK3djb9hCrEm4p7GxX0PIkL43DAvXJOBeI8QgS43EkoXfIun+3yy7OjKSpe9F2MI1SKhqvDQDexeMR/+QYPQZtwpn/xWvyCpG4aO/4RUXxYWorkaW3kg7+Btpop3/K5Bdxe6PF2JdYv7fItfiwkeMhyqo46d6tOMf89G/EdmlCCxeuBHJhf9/+/j/BxkuRSzGwo3J+DeoS69ApvTcp+gn6Y13N59HSbMWcG1picrr+7B4ZCd0mrQHWVp32P0LPE3DoZVfIvLsI3WCbmTXo7H6yx04XfAvWU3ehD5Afg2rJ7+Oz0/kwaxlC7SwfIiYtV9iR7K+A60MN2LW4ssdyWhMPPf0WhRWfRmBlId/s+zqyEh2IwZrGR0mKxsvx7XVk/H65yeQZ9YSLVrYwKzpWxU9H6Rn8GlIB0yIvP9CL3zSM58ipMMERFZdtGQ3GmkHfyNNsfN/C7LriF7NyPV0AV6s5Utx5tMQdJgQCZVK6/ipHu34x3z0b+Rp2iGs/DISZx/9/+3j/x+eIu3QSnwZeRb/BnXpDmQq87A77DOcsZyCg1fOIuaHrdi8OQKHz1xF0jI/5O2ajRVxperMLH+JihvIuCmHx6QN2L1tMz574x3syC/H+aXtUfv1l8/CAEN25KP8/FK01++EfxUGQ3Ygv/w8liobX4EbGTch95iEDbu3YfNn4+Dxjwcy1/DzmWxIX7DjSq/9jDPZ0pqLmsGQRtoBy78LKa79fAbZ1YbzcvspC8u/Dd5SBvXf2pFn4MDn3+Gs+zR8PbkjxOpkxcseHdpb4dGlbHBbB6N3O1N1VCTH/cvR2BW+B0cSzuOO1AKu7laM6zZEMW7G7cK2yCM49bsUNq6liF99BKXBMzCxq/pdTzrKlV07iJUHHiBgSn/w47dg28FEpD0wRAsPBxhrhmvy+7gcvQvhe44g4fwdSC1c4W5VXQrS967A2gvNEGB/D1E7tmPvsTO4UWIBN3drGDT4Jsy/1gd51jGs+iIcsT9fQyHzu/vBzXswbC/GLytXI0HmBX9XY8jT92LF2gtoFmCPe1E7sH3vMZy5UQILN3dYKxunav/qBBm8/F1hLL/KBKHrcdnEFY9jN2DHjxmQ2rWGu0Xtd01VpO3HykOPETRtErpZqYX1NBdnD0UgYu9RJF74A1JzTTkxyPJwMXoPdu+PwomUDNzn2cHNyVTHhbZhGSkeLa1YnQCZpy0yNn+J8Nifca2QiaUf3MQ9Q19IWigl1YAdyHB1dxjWXzaB6+NYbNjxIzKkdmjtbsFYqw770SXbohRsXr4Z0Sk38FBejvxCEXp1clGeK79/GdG7wrHnSALO35HCwtUdmqJqjKyKUjZj+eZopNx4CHl5PgpF7dDJKQt7V1TZgQGuMTpe85sROlnexp7N23H4VBoeip3RysGo9i+Tf0CHShr0sWchQ/4lRj8Rexn9/IbMCiu4uVpCpP5W8Qsw9+whRDDfH028gD+k5vX1t+4SzDrb4u6hbdi27wQu5Irg3KY5TCqykPzDFuw4mIDUwmZw97SDWOku13Bw5QE8CJiC/vx4bNl2EIlpD2DYwgMOVYOGLBWRH69FMtcbkpZG6pfhKm6rL8W6FD46+jqry3qWLIuQsnk5Nken4MZDOcrzCyFq54OyY59o+Knudmj10UbKWfF46uO1yeB6S9DSSNUT5aPBpeuQwu8IP2fV6C7Lu4joPbuxP+oEUjLug2fnBidTDauofIzfEw/ghz0HEf1jEs7fKkKzlu6wNVS0qxFjaPFNxO3ahsgjp/C71AaupfFYfaQUwTPeQFdzdR912XAddPdR8BfG+L84hijy6KGDJtmymobGIsX0i7D1l2Hi+hixG3bgxwwp7Fq7w0JYice/J+LAD3twMPpHJJ2/haJmLeFua1hrPCm+GYdd2yJx5NTvkNq4ojR+NY6UBmPGG11Ro66zOBQRgb1HE3HhDynM9apf9f1fQrGzb8M8oejJzYkncqVBiyMo+fYTkqu/qYf8ASUu7k42AkNyaBdIwUHeZCcWkfOQdXS5TJ2nLhXXaetIFxIJzMjFL5D8W1mSRdsO5CYQUtBXt1V59Ci3bP84Muc7UvsOdmTq6ENdu7Qma5GArHsupzNPVHnkDxJpcXcbEhg6ULvAYArytiOxyJmGrLtMqmLK6PB/rEnUsT/1dbIgZ0l36uHbnAy5BuTxVjTlP6vjz6EPshu7aNaYnuQq4pGlz0Aa/drHdCz7IP3HWki+Sy5TBVNE2eH/MH3qSP37OpGFs4S69/Cl5oZcMvB4i6KVjVO1X+i7hC4rT9hP48xF5N7Wk+w8Aqi7REJTDz5UtKYWJXtGUTNhF/o0Q6b8LMs8QNN8TIln5ES+PUOoq6clCYVONPDrc1SkyFB+hVb3sSWBmSt1Cu5NwX4tyJjXjCQLklTfa0MPGSn7J/SlJReu0a5ZY6inq4h4lj40cPRr9PGxApLrtIMy2j/OnETubcnTzoMCuktIMvUgPdTHfnTJtvAELR8TQI48Hjl0GkbjFxxgzpLTg8TF1N1GQIYO7SgwOIi87cQkch5C66oKbqSsCk8spzEBjsTjOVCnYeNpwYEsReM07ECt43bB1MPBkloF9aM+nVqQEd+Kgj5Opkfqcv4pHer2MS3I/6To9yRkxjMkR5/uFNzZjcz4YvKYuIcyFSYpy6QD03zIlGdETr49KaSrJ1kKheQ08Gs6p26sUn+GHalPSHOybhVAwYEezHggIOcxi2l2d0ey9wqkHhInMuIaks/80+qTFP7BJ8f2HcjO1JF8unah1tYiElj3pOVVg0bJHhrVTEhdPs0glXcoKKGdwwxJGPQV3VYkNijLQjqxfAwFOPKI59CJho1fQAeySrT4acPtqOujTZFz3TKUlOykYYY1+iu/spr62ArIzLUTBfcOJr8WxsRrJqEFSWpBSy/TmgGOJGTq7dD9FXqlewdyEHNJ0GIcRWbXjEG6xtCK61tppAvTRzMX8gv0p1aWFtS2gxsJhEH0lVKoetiwFnT3sYlj/PMYQxj00UGTbFmPsUh5jRS5U1tPO/II6E4SyVQ6+FBKl9cMIEch068O3emVV7pTBwcxcQUtaFxktvpaX0HXt44kF+Z6aubiR4H+rcjSoi11cBPU+ADjHZkHppGPKY+MnHypZ0hX8rQUktBpIH2tdlLt9Su/+svoEcgwIspPpOUDXMiQA+JwhGTu6kf9XvuAPt91hnLK1ZkYimLfJheBIw3flEbF6rQn5z6hnuaG1HlFqjpFEznd2zGMLAQtaczOm6QsSpZDMdO9yYAjqFasPuUqhcTlkd2A1XRJKTc55cXPIomRAfktu8x8LqLYt11I4DicNqVVl0LnPulJ5oadaUWqckRRGjmX50SjI26TVJnnIXOeO/GNBtLmfGVCHZ5fH6jsEE1glC9ZekUZuNS+gCk+MgbO9NFpdATdVjWOHjLluvONaKCycdoCGWaQaTebzlRVqoVaziXPpfDhVsR3GErfpas9VJ5PCR9KyEjkTfNSpFSe9C65CT3p/VMlqu8Z2Z6ZJyErj3foqNZ69JORsn+KQEbVeDo0gRm4JEvpilIY+shQFchwBe1otkaH9bIfnbJlKNxMA0RC6rXuT5WDF8XS2y4Cchy+iWpM6hx90tOcDDuvIIVJNV5WimoGkEjYi9b9qR5VtQQyXJ49Dd6QxlxSFRRSyuIAMhH50uKLTKX/mA718bH6PDk6mZwEVtR31RV1f8rpxsZQ5qLhQjNOllJu+HCy4jvQ0O/Smd4rkFN+woeMb4vIe16KMqVKf81H7aQ/lNUUUfx0N+JzROQzK5EKFKJkZLB7NBNwuExXZGBOUvkHz24ArVYNGiTPi6dZEiMy8Fum8iE9AhndsiykzQNEJOy1jlQq1e6nDbWj9gWwaXLWfREtp6R33Ujo+T7VdOUMzZNYkcc7R5W+U7BzBJkLPGlGfM0V6EnyLGorMKA+G3KZT3qMofJ7tGOYBQlajqGdN1UXEFlODE33NiCOQB3I6GHD2tA3kGncGM+I4TmNIXoHMo21ZT3GItU1UkDtZp+p7gOjUBphLiDPGfGMFNQ8SaZZbQVk0GcD5TJ1ye/toGEWAmo5Ziep1CWjnJjp5G3AIYHaB+S54TTcik8OQ7+jGnUl0IeMDYu855FCXVrrf05o3jl6JlzrnlgQk4HbF45gw5Kp6NOyAqmHV2Pea93g1fkdHFTO9pUiaV8Usu16oJ/XE6T+8gt+YY40WRf08gEuHIlWFVaLIiQcOYkirwmYO9oNyjtMPAf0WzgdParvlzWiXJ4H/rPobXRQvrGbC5te8zGjlwCXo5k80iTsi8qGXY9+8HqSqizjl1/SIOvSCz64gCPRt5RFKOA5hmLqSBf1bW1zBAX7wuhpHnLva5vV/Jz7oAueI0KnjoSL+p67eVAwfI2eIi/3viqhHlw07zmAyaP+qIvHcTgU/xhtJi7EpDbqe4Jca4Qs+BADDDNw+MAFcM3MYUqZOPrN59gel4q8cmMEfPob7l9fj4Fa69FHRrrQX4bc5j0xoLrDjbGfxslWmrQPUdl26NHPC09SVeX+kiZDF1XBiL4lb4Ks9IPnMQEfTfJSv9TVDF3en4E+4lTERF3753TYCB+roRyno2Jxz34EZr3lre6PEO6TNyEx5TgWdpYi7lA8HreZiIWT2qhv43NhHbIAHw4wRMbhA8oUJVw79J/4KpyVT0GM4evjAR6/PUZMCoKlYqTjWsCngws4hQ8UGdTw4PGfRXhbNWiAa9ML82f0guByNKJ/128Vw/PRcSPa0SQ56wMXZuamoMyj+Obz7YhLzUO5cQA+/e0+rq8fCEVXTAeuRFLKESwNrnpcXgmOnSPs+XI8LnysTlO4UgNjaFECjpwsgteEuRjtpnquwHPoh4XTe9Q8JtHDhv8KjRvjX9wY8kwaacv6jEVKuM3RcwDTV9UnhUKxMikFR5YGM1JQUcmxg6M9H/LHhXhMCnUdwckiL0yYOxoqdfHg0G8hpvcQqx+1KtR1CPGP22DiwkmoUVcIFnw4AIYZh3HggnrJad36nxPVgYz8+vd4vUcgAgPVR48J+C5DU6lC2PoMwltL1mF3wiVk591G4qqRsL22CdMXROFR5SNkZj5Axd1IvNktAAEBVUcIFiWWojIvW12OBvJ7yMopBdfJBS4aj2C55q3gZqNuWmPK5bVEK0+VY6gwgUtLG+DeXaaYTGQ+qMDdyDfRrboM5ghZhMTSSuRl56jPATiW1rDSmFjKFYrA5xDkci2zPJ93H3TBsYR17cZBxOeA5NocUAEXFtZWjOnphzzvLnLKeHD18Kw9V8LYHa0cGVEycuK3m4k1K/qDn/gJJvXpgObWzvAfMgOrErKgdYW0PjLSRSNkyLXQ0F9jZN8o2VbiUWYmHlTcReSb3TTKDUDIokSUVuYhO0fWeFnpCd+tNVprmrqhM5wZU//zbtY/psPG+FgNpcjOLgCc3OAqUCcp4NvDS+IJW1Ee7uaUgefqAc/anYG7qjPqzwwcK9jZ1eiPy2P+5pjAzKwmWObzFd9r+jEPLVt5qgIzNSYuLWGDe0y9+i2zfz461r8dTZOzPvDRbuYarOjPR+Ink9CnQ3NYO/tjyIxVSMhS9YRvZgeTR/H46s0R6BvkC09Hc1h4zUVSOSPVypo1dQ2NofJ7Wcgp5cLJxUXDPrkwb+WGquFAHxv+KzRqjH9hY0gDNMqW9RuLlDABUK328c1gZ/II8V+9iRF9g+Dr6QhzCy/MVSmUKVmOe1k5KOU6waW246OVm406gJAj724Oyniu8KjtpIy6WsGRseFn1v+c0HkVeZo0G+0tnDElus7KJMMW6PHut5jzihAPLl/AzUoRDERcCPyXI12mfGRV65DdWa8+UQOOIQyZEJxKilFca12pFOVP1QbFbUS5JEVZmWZBlSguYdpt1IwpxgAirgD+y9Mhq1MGkQx31oeoz2HgcKojTZ087z7ohGmb3o1TweFy9e4PRyyGAacSJcXFjPQ0kBfjSQlgIGbCbcaIA2cfRHpuJs5Ff49lU7rBOC0cs0IHI0zbZi/6yEgXjZEhhwtuVYcbJfvGyJYLkYEIXIE/lqfL6pVLsjtYH8L8LGusrPSEpGWoZepUhCJGP0bGzf4xHTbKx6oRQmzADH5lpSjVNIXKQty6lIrMRwLmew4q69UrR7GqM+rPDBweGFNvJARpWVktOVUWlzDhlRGaGauMQWETlZWajSuHtFxeEw49Fx3rbkcVTZOzAsW4xlycanWF0Z/GxZtrHojZB9ORm3kO0d8vw5RuxkgLn4XQwWE4+7QSWRGvoVv/eTiYYwm/0KlYtDEGV25uQqj6V3g1DYyhHENDiJmgoZ59SstRNRzoZcNa0d1HJY0Z45/rGKJv+xpjy3qORUo4TLk1DazMisBr3fpj3sEcWPqFYuqijYi5chObqhXKgaGhGBwqQXFtB2TU9VTtAxyIGX1wKuvnkRc/QQkMGB+u6kzt+p8X1aLieU7FjqTTOH1afSRF4K3WPPC9OqAVJweHv92KDCZIq0XJNWTckUHs7Aonrgl8Ja2BqzGIytD4BSG/he1vD8LIJcfUCRpwbdHZ3w10KR4/auzgJr2YhJTqjVAaUa7sKpJ/Kqgx/JJfcCK5AGaSzkwxvlAVE4XaxWzH24NGYsmxRt76q+J59+EfhmvvB19nwvnYGOTWdAfSC8eRmC2Al2873I8Nw/hRSxFX4QBJ6GTM/3oX4o/Mga88A+cu1dxerkYvGemiqTJ8jrJXBEjqPxWY+ErQGlcRE5WBmpLluLX9bQwauQTH7ssaLysGReCpC9nlRJwsqJFd6dkTOJVvCv9A739Oh03yMQN0lLQF5/dkJGXX/GqVZ4ZjamAApu7hws/XGXQ+FjG1O4PjidkQePmqE5qKDFeTf0KNKEvwy4lkFJhJ0LmdkOm3AXMRIzwqKGA0q6b0Ii5W362u1EOWisFblfvZ6GiHJk0cy7gGTABEj1BQUCPn0osXUdOV+4gNG49RS+NQ4SBB6OT5+HpXPI7M8YU84xwuFeYjJjwa+W3fx57oTVgxdxpeG9QNLjnpuM7Ea5Uad2QagmvbGf5uhEvxP2ps3CnFxaSU6v2vdNtwe3VKbXT2sUk8vzHkxbRPn7FIm24qkR8Tjuj8tnh/TzQ2rZiLaa8NQjeXHKSrFMrk4MK2sz/c6BLif9TYkFN6EUkpVftacWHv5wtnOo/YmNyaPIxOLxxPRLbAC77t69jwc0ane3GtR+Hjpb3Ai3sf3ToPx8wV67EtfAe++3IOxvQYitV32+O/80bBlstH+ymzMdziHJYNfRWLtx/Fyfh9+HrKq5i55RwqnL3UJWoihN+02RgoOoZZg9/C6oM/4ljEEowevwbXqrXRiHIZAzk6dwzmbj2GkzHbMH/4a9h4zw8z3w9limmPKbOHw+LcMgx9dTG2Hz2J+H1fY8qrM7HlXAWcvSzUhTSW59yHfxphV0z/sA8Ex2djyFurcfDkKcRGLMbI8atxy20iZo9rCXM74EbM55j+xgr8EPczTp88gG/CdiLNoBN6ddMmR31kpIumyvA5yl5kAhNxJTJiv8fO46mMSU3B7OEWOLdsKF5dvB1HT8Zj39dT8OrMLThX4QwvC34TZKWoxgTiygzEfr8Tx1O175hbWXAY7w2biW+jfsTRbR9hxPhv8WfH/+KDwWb/nA6b5GM8tJ74AUaYncLiUdOxPioRiUc24L3xy3HadgxmjHZG1+kfoo/gOGYPUdR7EqdiI7B45HisvuWGibPHqctpKkyQcnQuxszdimMnY7Bt/nC8tvEe/Ga+j1AT5mthR3TxFeNWxEf4aEcsfmLqXjJuGvY+EKoHT64eshTBxESMyoxYfL/zOFK1boWqox2aNHEsE3bsAl/xLUR89BF2xP7E2MQSjJu2Fw+E6ssA1xx2uIGYz6fjjRU/IO7n0zh54BuE7UyDQade6GZlAqcWVqBbMdi8+2dcufob4pkyRv1nA3MWUF5epipHF0I/TJs9EKJjszBYYZ8/HkPEktEYv+ZazUVYpw23UGesjc4+NonnN4a8mPYpTELXWKStfC5MnFrAim4hZvNu/HzlKn6LZ+x71H+wQaVQlJFCXdMwe6AIx2YNxlurD+LHY0ye0eOxRmPwFnadjg/7CHB89hBlnpOnYhGxeCTGr74Ft4mzMa7Fs/onx+2oz/HRwu9xRvvvOv0gvSijG1HL6Y1X2lMLczEJeAIytnajzsM+oO9/LVCt4FBTkr6b5gz1JSczEfEFxmTXtjdN33yhelmoNh5d2EIzerchGyMhia3b0MA582i4owFVzeJWoKtc5Yxogz60eMtMCnYzI5HIlFp0fo2+SsrTaF8Jpe+eQ0N9nchMxCeBsR217T2dNl+oLqX2agI1ZYcmkKVQQkurls9o4Xn0Qa9VS9WretRonMN80LIaQkh+YWkaKy7qU38m/RO6vGMmDfB2IBOhkIxsPKnnxM8pLruq3nK6dWgBDZO0UMlRbEnuXcdS2PGsBuvRJaPa/au/aklBwzJUrVoS+oVRWp2G6LQfnbJlkBdQ7JyuZC/mEc9+siqtJJ12zxlKvk6MzfEZv7BrS72nb6Zqk2qCrOQFsTSnqz2JeTyynxyjaFy9VUuC9pMp7L8h5Mb0R2zuRt1e/4oSFUsMqvlndMgIRIePaackLZJmhbYnRxMhCQxtqE3f92lXWtXSGaY3l3fQzAHe5MB8LzSyIc+eE+nzuGyVnzBo09+jraEkEobQ2pwqucjo5heBJDQbrfqo9A8D6rN4C80MdmPaKyLTFp3pta+SKE9DlOU399PsAW3J1lBAYitP6v1eBP3wgReJq5ee6pKlnApi51BXezHxePY0OaZQi5823I76PtoUOZfTzf2zaUBbWzIUiMnKsze9F/EDfeAlrtFf+S06tGAYSVqo7Fls6U5dx4bR8Sx1T3LjaNkwH3IwFpDAwJxcOo+kRXsT6LOeYjIdtIXJoe8Y+ogubJlBvdvYkJFQTNZtBtKcecPJ0aBm+bVuG9aGrj42fYx/LmOIHjpoki0r0DEWKa+RQj8K0xwc5bkUt2wY+TgYk0BgQOYunWnkor2U8FlPEpsOoi331PU9ukBbZvSmNjZGJBRbU5uBc2jecEcyqPYBhieXacfMAeTtYEJCoRHZePakiZ/HUZW6tNZPUjo5w4V4wmBao1y+3zQ4in/UMQ0LC8u/HimiXm+BUVffwblf2Z1hWVhYWP7a/SwWFhYWFhYWln8QNpBhYWFhYWFheWlhHy2xsLxUVCI/9SdcLHJGYFc3qLZPY2FhYfnfhQ1kWFhYWFhYWF5a2EdLLCwsLCwsLC8tbCDDwsLCwsLC8tLCBjIsLCwsLCwsLy1sIMPCwsLCwsLy0sIGMiwsLCwsLCwvLWwgw8LCwsLCwvKSAvwfUYGp/9223QEAAAAASUVORK5CYII=;" vertex="1" parent="WIyWlLk6GJQsqaUBKTNV-1">
          <mxGeometry x="133" y="-100" width="562" height="116" as="geometry" />
        </mxCell>
        <mxCell id="QT5-kErvMyWDPy3g1TAe-4" value="" style="shape=image;verticalLabelPosition=bottom;labelBackgroundColor=default;verticalAlign=top;aspect=fixed;imageAspect=0;image=data:image/png,iVBORw0KGgoAAAANSUhEUgAAAlYAAABHCAYAAADFsAkIAAAAAXNSR0IArs4c6QAAAARnQU1BAACxjwv8YQUAAAAJcEhZcwAADsMAAA7DAcdvqGQAAFmuSURBVHhe7Z0JXFRV+8d/zD7DvoogIouguCGDIiIqmjvuuaTWm1vlq+9rZqamoonWa6W5pq+5oyguICBKsoWklCaKCGJKhmIsYogIgszw/O8sMMMiDIq91f9+P59R5txzz3m2c+4z995zrx4xgIWFhYWFhYWF5aXhqP9nYWFhYWFhYWF5SV48saq6j+ivlmH5vksoVxf9bZBl4GjgcmyOy0OVuujPiuz6EXyyfCsSCv7skr4MMlwNCsDyHUko0lVN2XUc+WQ5tiYU/PE+/FPGzwvY8GWQXUVQwHLsSCpSF/zNkKUheOVyfJ344H/q47/e+P+D4/B56DxGZbhxbA2WLvsKZ+7J1WUvgwxpwSux/OtEPPiruIyl2bxEYvUbzu35Al8eu/Y3TKxuIWrLF9if9D84KDcT2c1IbPpiP84X/p2v6D5Deth6fBF8EY90VVN2E5GbGB+eL8Qfbpk/Zfy8gA1fhmfpCFv/BYIvPlIX/M14dgPhG79AUPLvf3x8afHXG/9/cBw+D13HaFEk/vP+GhzLa4futlx14cvwDDfCN+KLoGT8/ldxGUuzYS8FsrCwsLCwNEDRhR9R0CsA+zeOhTV7tGTREe4qBvXfzaPqN8T9dw+Sjf3x4VQPiNTF9XmG3IthCAo6ilMJKfi13BSOzha16svyryAy5AiOh59FcuYDcK2dYGfMU29tGFnBVUQeCsLRiDj8lF0JCydHmAvVGxme5V5EWBCz/VQCUn4th6mjMyzqCPncNmQ3cfKrYyjoMQtjTZJxYE8ITiffwhNTRzhbiqGn2l2J/EEq08YBhDBtXL5TDrM6/TRHt2fXghG4ORoljr3gaqoZxc/SmPItSdDrJkU7iXbvTPs3QrH+xEN4zxoGXuxu7A1NQPpDCdq62MBAeyKoKsbPCSdwOCQUkd8m4nJWCYzaOaOVRFFJhutHArEt1RCOxdHYvv9bZJZbo4OzGQTMtoKrkTjE+C8i7idkV1rAydEcGlO/Gv8+uR2DQ3uDEXHuZ5RbOaIsdhMiyvww7+3eqDZNo7aX3UDo+hN46D0Lw3ix2L03FAnpDyFp6wKbWoaR40Eqo9+BEEa/y7hTblZLflnGUazdkgIj79bIC9+PfUdP48KtUpg5OcNSVNsXNbRQ/Cgu8wRuS4WhYzGit+/Ht5nlsO7gDDNB03GnoGkbVqH45wScOByC0MhvkXg5CyVG7eDcSqL8xdVY//V5gtsxh7A3OALnfi6HlWMZYjdFoMxvHqb3NlVVkT9AauQhHAiJQNzlOyg3Y+xRV2gtZEzcf8LEPacLE/f6aqspLjGu2opkXnd42ot190+j8f98njtHVKbj+PowFPvOwYw+FqpfqE32IUP+lUiEHDmO8LPJyHzAhbWTHWoNhebaqEXGv4KWl62apuOw8TFYm1L8uCcQ25M56Cpth+qwUMTfD7sDsSNFjB4edsr5qfH5QZcxWoWS+zdxr9wWngM6w6rGVAW4ytgh6Chjh5+yUWnhBEfVgQNpwZ9gSxIHXbRkk10NwqqtyeB194C9WIb04+sRVuyLOTP6wELZ5quZQ1GahbjgvTgUnojMUmbeFlzE1+vjIVfIwb+O4E+2IInTBdJ2+mp9FZdpV2FrMg/dPewhVsuvy1zDUgfFqsAXovIiLe3MJ+HwXVSkLqqHLJtOzHEnY64+2Xn0pwG9XclcICC7ERvoUomqSsW1TTS4FZ9MHHuS3yA/8mxrQFwjKS1LVFeoh5x+i3yfpCZckti6U18/L3Iy4ZHYZTqFZMuY7TLKPjGH3I25pG/nQf0H9CZXcwEJ7EbQhupOm2rj6Ul6y5JHrbu6k62pPUn9GLnsDYgjbE8zw/KYvVVtPEwIoL5WfJLYdCYfP1/qYi0mof1o2pr6VFmjubrJ7/+XhhkKSPrJNapUlxGVUvS7bUnQeSld1BTW8PT4FDLl2VLXbtZkzOjSu1cHshTyybL/GrrwWF2pPJU2D7clgcSGuvV9jV7r241sxBzit51CwTkKbZ7S8SmmJHTuRK7WLuTdV0rS2aH0u/w3inxfSiZcCdm69yU/Lycy4YnJZXoIqUz9KvxbSTf3TCAHRgcTB0/y6dGezM06UTcnPgl8v6RfFP3qYHvGMDTFlEe2XbuRtbEtuffuRR0shcS37E9rqg0jf0gJAX3Jii8hm84+5OfbhazFQrIfvZVqmjn5FmPP7jRsiB2Z2Uupbz8PaiPhkMjlXYosUEVCPVoofpS+FTpTJ1drcvHuS1LpbAr9XQfddbJhOaVuHk62Akb3bn3ptdf6UjcbMXH4bWlKcI5Sxob7V+xbh8qbtGeCAwn5JuTg6UM92puTWadu5MQXkO+XvyiryB8mUEBfK+IzMdjZx498u1iTWGhPo7emMtHXMKUhE8lI0Is+y1QKrKL0II2VaNrVyT9Nxn9DNDFHlIbQRCMB9fosk5lxGJrso4KubRpMrRgbOfb0o0F+ntTWgEtG0mVUPRRexEYtM/5fjWw6xaEOY7A2Mrq5zodEhkNpx30t3z0MptfNhOS1NoOpocv8oMsYlVF6oCcJTKfQcfVu8t8i6X2pCXElzJzS14+8nEyIJ3ah6SHZTO1SCploRIJen1HtkB1LEoEvfalUuE6dVzKHMpa/fYCmOItJYNWZBgwfSO425tTJz5tsRWo56savklI6OFbSvHmWpUFeYWIlp9wD48iCZ0Nj/puhHnxyKoj7kKT6QuqyJJn5XkGJ/3YigesCOleqrEBUcoGWSC3I5Z+n6Im6qBaPT9FMOz5ZDNlI19T7VNzaQf6M8x3mxVNZ7gEaZ8EjmzH/pYzqwVAQRx9K9UnYZQkllzMFTbRRrhx0HOLajqM9tytUFR5/R/M78MnAfzcVKL6XRNN7DnyyHbeT0qsFfXyJPu1vShKvtZRW+QK6yQvowFhT4rsH0JXqJKokkmbYCkm6SjvZ0qCcWDlcsh6+ia4qx5mc8mMXMjYWkefqVGWdwoPjyZTvSvNiNUfFx0kLqRNfRIO35zLfVIkVh9+ZFl3QSPb41Eyy41vQkI3XmCGnoIJu7fBnJkEHmhdf9kr8K8/bT2PN+NRu8kFSmV5G96PmUheRHvGrB3yTtme+KxMrxofWw2mTyjAkz4+lhUwciDxXUypTpyT6PXLg29K4nek1sjy+9Cn1N5UwE3Sa8rvywM3Y125SEP2iiB2G35n9nHn6NGKXMhLq0yLxU+1bPnVedEFjKx3208mGhQdpvCmfXOfFUk1UPE6ihZ34JBq8nXKZI0uD/ddDTnn7x5IZvx1NPnib8TiD7D5Fze1CIj2+OgEqoej3HIjP2GOnRmi69Gl/MpV40Vqlw+qjc2LVhH+ajv8GaGqOqHNgarKPikT6t5OAXBecU48lxioXlpDUwoX+eUphkxezUYuM/1ckmy5xqMsYrIv81y00UF+fBm27y2irLKECJgZNJP1oQ5ayUR3mBx3GKCNv7cTqMZ2aaUd8iyG0URMUtMOfSTgd5lF8eXMTq1d0jJTn08HxFsR3/Acdv6vyjTwvmv7dVUR6/GYkVrrYkaVBtE8WtzDFiAmLRXHH6Vg+o6P6tCYHlgOW4cPhEmSePKH8bmJqDMo+ha/W7UNMWj4qDLzx2U8PcHPbCOgr96lNxflwROe1xviF76KLRFUmcJ6JnQnJOLPcC+UxYYgt7ojpy2ego/p0JcdyAJZ9OBySzJM4kfKsyTZUl7k4sBk5B1Oc1Nc9DL3Qz9MIz3JzkC8DyhOPITzHGv2GuuFx2g/44Qfmky5Dr4HuQEoEIrOo2boxgmLkG0Nhkh6GY1eZThiKY44i6ncPTJjkhuee+OW64K0V76GbgeILB1YDl2LeQD5SIyOVm41HrEdicgRW+akvyaAKeta2aM2To7ioWF3G7NmmP4Z7VEtWgfPh0chrPR4L3+0ClZkEcJ65EwnJZ7Dcq/yV+LckLgLxJW54c/EkqEzPhc3Q5ZjbT3MJrWnbV6/e4cLlrRV4T2UYcKwGYum8geCnRiLy51IkHgtHjnU/DHV7jDRFG8wnXdYLqmZUtlPCtYX/7AlwUF//NPX1g4f+M+TnPlAVNMjLxo9aB04b9B/uUWMrXfbTxYZMUGB9YjIiVvmhJir0rGHbmgd5cRGKq2+srdN/fUoQFxGPErc3sXiSExMhDFwbDF0+F/2qryWUJ+JYeA6s+w2F2+M0lcw/pEPWayDckYKIyCxVvRelCf/oGv/a6DZHaGiyD44JTI0J2ae+wrp9MUjLr4CB92f46cFNbBvBWPdlbPSy4/8VydZ0HJbrPga14Ni9jjf8eDh/PAz3FHeeVxUg4lg85L6TMbEdV/ex1cQYrUfFeYRH56H1+IV4VxMUmLkzAclnlsOrblA0yas5RqI0HifjitFxyr8w2k511OC0GoSP/zUAde4kaRTd7chSlyYTK/nNb/CPfj7w8VF/+r2J/2bqYFB5Pu7dfwquowtca2UEBnBubwvk5TB/89B5/masHcZDwqczMLhbG1ja98DoeRsRd/eZqnodynJyUAg7ODny1SUKeGjtJoVrKyHy793HU64jXGp3CgPn9rBFHnLuy5poQz1gGNNYWFkyU4EGHp9pUyaDjJmYHmVn42HlPQS/0wfe3t41nwErElBWlc/0g2brpsBk2BSMtLqJsGOX8QxFiA45gydeEzGxfSMrUrjt0N5VPTkoMYRDOyvGxveU33gm1jB8FIsv3xmPIb4ecLU1hZnbYiRWAFSlWRPDMbOERU03ZcjJKQTsnFDbTK3hJnVFK+Gr8K8ceXfvo4xjBwcHrUY5pmjvZKUOVl1sXz0rctGuvavqYK/G0KEdrJg4uHevENnZD1F5Lxjv9NG04e09ACsSylCVr5BfjZ45LDWGYeQRQMjTA8kbGwcvGz9qHThmWn3rsl+FDjZk4JnA2vARYr98B+OH+MLD1RamZm5YrAoKpic1tfpvAHke7t4vYw52DqjdXXs4qW9KqXqUjeyHlbgX/A76aMnsPWAFEsqqkK8YLC9DE/7RNf610W2O0NBkH7zOmL95LYbxEvDpjMHo1sYS9j1GY97GOCiGwkvZ6GXH/yuRTYexXPVI9zGoDccaY6YMhvjHUIT+KkdV7kkcS9TDwDfGoTWnOfNDY2O0AcpyoJoSHVF7SnSD1LWV+sdnM3hFx0j5gxzkljJJY9t2zN7VcGDq4gzrRoZybZpjR5a6NJlYvTB6YohFeqgqfYInteYuOZ48LgVEYuU3jqkPFoVmIDf7EiK/WY1ZfQyQfmAh/EcF4mIDcSMQi5hgeYqyMu21qlUoyrqKtOxH4DPb9apK8aR2p5A/eYxS5jeBWMRpoo2imkGlp/e89J4DoUgIDr8H1mTIFJdTa39kd7BtALO9mbopMXgNU0fbIiv8OH7KO42jZyvQZ9IE2Dc2IKgcT59q61uFJ6VlgL6R8u+7QdPQZ9gShN43h6f/bKzYEYVrt3fCv+4NiHoccGpUFjC2Yobl0zLUNlMRsq6mIfsR/xX4Vw8SCfNrlur7r7zimXpZu262V0Eof/qUsYCGqielTMqoDyMjEURCDvg91iBDVqcN5iO7s029hwI9JhbUfzaDl40fFXrg1DhFl/1EOtiQscPdIEzrMwxLQu/D3NMfs1fsQNS129hZPyi0+m8APQkkYiaJqRcH5ah4pvaYUAQhh48eazIgqyszyXBn2wBlvfowdme8V6UdfxVMu3LtAgWN+acZ8a+FrnOECl36YA5sPosQmpGL7EuR+Gb1LPQxSMeBhf4YFXgRshe2EcNLj/9XIZsOY5kjbMYYrI25/xSMML6I0NDbyA47hvOioXhjlCJha87YYqRszsAWiKGaEstqPWKjqigLV9OyUaQICkV7TLJaO2QrUC9kFbyiYyTXwAgGXEJpSQnjfQ30lBk7WnKoRK0lKeMbuVr25tmRpTZNJlZc19nYn3ge58+rP4lBeLeDDmkvpzU8PexBl6MRlavl3vIUnEnIAd/Ng/HqA0QHTsXEVTGotJHCf+ZSbDgUi4iPPCDPvISrDZylF3WXopPez0hKzGHCT408Gwdm+8B7dgg4Hh6wp8uIjsrVCqpypJxJQA7fDR5dBU20cRj5teeBBjH0kKIDriMqPFNrkpUja997GDlhJU7n5zdbNxUi9Jk6Dg6/RiNkWyi+Iz9MGtu6cUfJriPpu0KNvqU/4GxSIUykXoyNCxB1IBIFnRYgJHIn1i6eg2kj+8DhfgZuMoOy6jm/2BVydJd2gt7PSUjM0ZyZkWcfwGwfb8wO4bwC/3LQyqsHnOgqYr/VenBf+RUkJmueN9Ok7WuevCfD9aTvUFjTUCl+OJuEQhMpvDqbw0PaAbgehfBMrcOkPAv73huJCStPqwteDbrrUJum94MONqxCQdQBRBZ0woKQSOxcuxhzpo1EH4f7yFAFhWa/puC0glcPJ9DVWHybp9mr/EoikqsfWmnoAZWpw1Hb1Pvw3sgJWKkQugE4IuaATo9QWKiJv7IrV6DLCfMaXjD+mzVH6NBH1YNoBE6diFUxlbCR+mPm0g04FBuBjzzkyLx0FcUvaCMlLzn+X41suoxlwxcfg4aDMWWkJVIid2PH8R9hzCRaw9VXOl90bDWJqDuknfTwc1IiNFOiHNkHZsPHezYO5zNVmGSEHhVCE7JluHIlUxND2ryiYyTMvNDLDbh2Nlp1qVRJBa4mXEB+tSAcxQ9LwqPCQo1sZVdwRWtwvTI7/n+AyT5fDPXN63zpP2lPcDAFa38OH6WkX2Uku/VfGmHFI1PpLNp4Io4SzxygFf4OJBR1oLlnHioaoSure5BE1J7GrQmms0nfU9zxL2iyq5gMfT+ndM1ddRrk9+nIG22Ib9qD3t16kuLjw+nred5kIXCgmeGFJJfdov+OsCKeqZRmbTxBcYln6MAKf3IQiqjD3DOk6LXJNpQ3NgrIY2Wq1g3jTylieisSdFuhurFcfpcOTbIlntiZRq/YS5FxMXR0/dvkbsSjVqN30x3ZC+hWTWUKLe/GJ30DA7J4PVgl83OovsFY3MaPPtwdRXGn9tCSwbYkMPKmNT8p7uZ9QpEzGDkNpTQ3KIlS0y5RzIEAGuVsQHwen7osu6RoRXnzusAzsJZc8vtH6I02fDLt8S5tPRlP8eFf0zxvCxI4zKTwQvmr8a/sDu0ZY008E5X/oqMOUMAoR2J+2GluvG7S9kwd9c3rfHEb8vtwN0XFnaI9SwaTrcCIvNf8RArLyO8eokm2PBI7j6YVeyMpLuYorX/bnYx4rWj07jsKaVQ3Rws8aKXibvdqnobRm+YC5YKCBmmR+FGowPhW4EmBtZyig+462PBJ5Ayy5RmSdG4QJaWm0aUYRR1nMuDziN9lGV1iZGyw/waQ3dlDY6x5ZKKMg2iKUsSXo4j0UH3zupzuHprE9Ccm59EraG9kHMUcXU9vuxsRr9Vo2q0Uuj7yu9tpqBGXLHwX0r4zCXSGaXe0iyUZS4S1b15v1D+6xH8DNDVH1Lr5V4c+Kq/Q6h4SErUfR2uCz1LS93F0/IvJ5Co2JN/P05k2XsxGLTL+X5FsusShLmPweZSfe59cmHldJGxHc2Kq7+xm0Gl+0GGMMprXvnldTvePvEFt+KbU492tdDI+nsK/nkfeFgJymBlOhXLGTtuHkhHXgnwX7qMzCcyxJ2A0uVgak0TY8KrAVzKHMnL+dvRNsucbU7e3v6RjZ6Lo4Kox5CTmaG5eZ2y0fagRcS18aeG+M5TA9Bsw2oUsjSUkbM48y9IgL51YKXKzeh89EY0JUgX649T9NH94F7IxFJBA34pc+0+ndTE5mmCuyKKwZWNJ2taEhMxAF5s7U+83AunM3Ua8VppOwQv9qautIQn4ErLqOIQWHEqvWdHCdEr75w+nLjbMdoE+Wbn2p+nrYihHa+5ttA2dBh1DaQYd+WgMedipZDew7kSD5u6ilEfq7S+imxJmQK/tSQJOK5p2orqxhlFOrKLBFLB7Pvk5Mf0Ijamt1zT6MjGfGV4q5LkxtHqsO9kYMImwyJQcvCbQiqNx9J/+YjIeuZup0XBipaA0PZgW+nclW8Z/fIkVdRyygA6layaxV+LfRym0e94g6milTwKxJXUc8REtGWdLouoBr6Ap2ysTKxENDthN8/2cyEQoJOO2XjTty0TK11qlXZpxhD4a40F2JkLi8Q3IutMgmrsrhWqaeVWJlYImdHhuYtOU7gqasqE8l2JWjyV3G+YAyxeRqYMXTVhxlOL+05/ExiNpd55c58RKwaOU3TRvUEey0heQ2LIjjfhoCY2zFdUkQIzQlHHkIxrjYcf4gkneDKyp06C5tKuW0HWpoNvHF9HwTq1IwheThesgej/oMH3gJm5GYqVL/D+HxuaIOquqdOmjIiuMlo2VUltlrInJ3Lk3vRF4hjRDofk2apnx/2pkU6LDWG5qDD4X9TGI5/IBfa9e2FdDk/PDiyRWCkopPXgh+Xe1JUMBnyRWHWnIgkNUMyVW3Kbji4ZTp1YS5kedBbkOep+CDn9AbuKGEysFr2QOZXS5cWQhDXOzIrHAgGx7vEVfLh7M/F0th0LU47RoeCdqJWHatHClQe8H0eEP3EjcnHmWpUH0FP8wyRDLnwo5fv68H9y3dsSJG99g2POXZLGwsLCwsDRJ2aFxsJxRiNWZCVjooPNd7CwvQJP3WLH8D3jyI3YfSoHdhLcxgE2qWFhYWFhY/jKwidWfCfkdbJ/gBien1/BV4XAsm+9d73k5LCwsLCwsLH9e2EuBfyqe4UbYRhxNN0SPiW9huAt7uoqFhYWF5eWpyr2CuGvP0L6fF9o18qgRlpeHTaxYWFhYWFhYWFoI9lIgCwsLCwsLC0sLoUNiJUPG0UAs3xwHref/vQJkSAteieVfJ+Kv89yxJyh6pPVguxdAlhaMlcu/RuIrVro88yiWTR2GAX6DMWXjRXXpq0WWcRSByzcj7tUGTn1kaQheuRxfJz5QPoiwaTlkuBoUgOU7klD0UqK2VDssLCwsLH9VdEqsbkVtwRf7k1D9IOVXwzPcCN+IL4KS8ftf4eJk+QV8NqAb3gxWHbxflGc3wrHxiyAkv0ql5TewaeY/sO5sPkzatUVbKxP1hleL7FYUtnyxH0mvNnDq8+wGwjd+gaDk35UPVmtajmdID1uPL4Iv4tFLuaGl2mFhYWFh+auiQ2Ilwuj9Bai4vApda70o8v855Tfw/YUclP8VDqCVt5B5Ww6XGdtxZO8u/GeKi3rDq0U0ej8KKi5j1f84cP4scrCwsLCw/P3hrmJQ//0cFJcC12JTnAxuPRxhIM/A0bVbcdXEC63uhWHv3mM4m5ILoX1HtDGsxN2kw9i9PxRxaUUwcnaFtVjxkktVG5t/0kdP818QsmsfTp5Lx+9ie7S30Vdnd5VIP74eYcW+mDOjDyyUhXI8SI3EoQMhiIi7jDvlZnB0tmBSPRWKSzxrt16FiVcr3Avbi73HziIlVwj7jm1gWHkXSYd3Y39oHNKKjODsag2lKGrkD1IReegAQiLicPlOOcwcnWGhaZjRcQtSjLzROi8c+/cdxekLt1Bq5gRnSxH0SpKxa80uRCbfwu/yChQUCTGwp4NqX/kDpEYewoGQCMRdvoNyM0c41zRcn8r041gfVgzfOTPQR6U0qop/RsKJwwgJjcS3iZeRVWKEds6tIKlOg2X5uBIZgiPHw3E2ORMPuNZwsjPWepO5Bvnd09j4+QFEf38DRajCw9t5kHQV4Pt1W5DE6QJpO32ozKK4jLUKW5N56O5hD7HSz43YQLmPAhkKrjI+CjrK+OgnZFdawMnRXPmYCKV/NsVB5tYDjgbqPZ7l4mJYEIKOnkJCyq8oN9W2jypOtqQYwbt1HsL378PR0xdwq9QMTs6WENV0WoXinxNw4nAIQiO/ReLlLJQYtYNzK4kqlirTcXx9GIp952BGHwtUNSDHk9sxOLQ3GBHnfka5lSPKYjchoswP897uDVNlI030oabpdhqPYQWy/CuIDDmC4+FnkZz5AFxrJ9gZN54EygquMvEbhKNM/P6UXQkLJ0eYaz+bozE7K+O7+WM4LfgTbEnioIu0HfTVvpBdDcKqrcngdfeAvViuo/8YmhonzYhxFhYWlj8VilWBjfOUTr5lSQKPlaR8a4TyVQAS6j54ALWxbE/efj7kYsojvv1kCljUl2xbu5FPPynZ6XNI4r6UzitfBaBuo7Mf9bMxp/a+Q2lwz7akz7Mg30+S1K8uqPOof/lDSgjoS1Z8Cdl09iE/3y5kLRaS/eitlKp+vYDydRaS7jR4QBuybO9Nfj4uZMrjk/3kAFrU15Zau/lQP6kd6XMk5L70vGonktPDhADqa8UniU1n8vHzpS7WYhLaj6atmoYZHYXUfdgQsjOzJ2nffuTRRkIckQu9G1lA8qKztGayN9lyuWTTcyxNXXZCuZv8YQIF9LUivsSGOvv4kW8XaxIL7Wn01lTGAg1TGjKRjAS96DP1+w3KUzfTcFsBI1s36vvaa9S3mw2JOXxqOyWYchTvqKi4RpsGtyK+iSP19BtEfp5tyYBrRNJliVSibKE2sluHaOHk/uQo5JK5+wiaNO0TOn33cK3XcagopYNjJSSofp1BUzZQ7CL/jSLfl5IJV0K27n3Jz8uJTHhicpkeQtlMG3VfNyLLPkFz3I2Jq29HHv0HUG9XcxII7GjEhktq2VVxIuw+jIbYmZG9tC/182hDEo6IXN6NpAJlp+WUunk42QqYuOjWl157rS91sxETh9+WpgTnqOSq87qR2nJU0s09E8hByCcTB0/y6dGezM06UTcnvkZ3XfrQpR0dYrji2iYa3Ippw7En+Q3yI8+2BsQ1ktKyxIa8qUBOv0W+T1ITLkls3amvnxc5mfBI7DKdQhRGZ2jSzi80huu/ikNB6cGxJKl5TYYu/tNhnDQzxllYWFj+TLxgYsUhbpuJdPBX1QGzJHYuOfH0SOi+kBIKFbOnnAqOTKJWfAeaG694EaiqDQ63NY3aXv1OvyJKDvAmQ6EHBShfzFR74i6Jfo8c+LY0bmc6PVHWJ3p86VPqbyohr7Vpyu/KAyaHS20mHiSVKCUUO9eJeHpCcl+YQCpRCujIJGaSdpirqKBomN5z4JPtuJ2UrmmYPu1vShKvtZSmraPdJAr6RSE/w+/Mfs480h+xiwoU34t20XChgAZu/U19oC2h6PcciG87jnZqGqZLn/YnU4kXrVU2XJ/aiVUhHRxvSnzXeRT7u2q7oo2khZ2ILxpM23PlVJH4b3ISuNKCc9UvpyqhC0ukZOHyTzpV3W1dnmrenaaUok7ioaKhxKpxGzw+NZPs+BY0ZOM1tU8r6NYOfyaRcKB5jN9rJTTyXDowzoJ4NmPovxnqrILxTdyHUtIXdqElydpxYkeTgn5RviiZ6ZSxqzPx9EfQLkWnhQdpvCmfXOfFMlvUPE6ihZ34JBq8nRgT1dNPWw553n4aa8andpMP0m3l+8VkdD9qLnUR6Wle8qxDH7q003QMV1Div51I4LqANO68QEukFuTyz1M1+9Ti8SmaaccniyEb6Zp6n4pbO8if+aHgMC+eynWx8wuNYd0Tq0b9p8M4eaEYZ2FhYfmToH1VoxlwYD1sOl63V52YN/BwhwuXh67jZ8DXXNEkB2bu3eCgV4SHD+XKOgq4Lm/i4xlukCi/maDXgnkYLE5DVPgNZYmGciQeC0eOdT8MdXuMtB9+wA/MJ13WCwPdgZSISHU9Bo41hk1/HSpRDODh7gIuryvGz/CFShQzuHdzgF7RQ0UFlCceQ3iONfoNdcPjNFW7P6TL0EvVMCKzquXlwtZ/NiY4qK+vmPrCz0Mfz/Jz8UCjkobyRBwLz4F1v6Fwe5ymaveHdMh6DYQ7UhARmaWu2BjGGLE+EckRq+Bnqi6q0oO1bWvw5MUoKiZwTExhTNk49dU67ItJQ36FAbw/+wkPbm7DiBZ/nmhjNqjA+fBo5LUej4XvdlH7VADnmTuRkHwGy720r0sxFMcgLLYYHacvx4yO6ks+HEsMWPYhhksycfJEiqqMgWvrj9kTHNRPnTeFr58H9J/lI1dheOMRWJ+YjIhVfswWFVV61rBtzYO8uAiMiRqlJC4C8SVueHPxJDgJFCVc2Axdjrn9xJrLmzr00XQ7usQwByamxqDsU/hq3T7EpOWjwsAbn/30ADe3jUBD7qw4H47ovNYYv/BddFEZHQLnmdiZkIwzy70g1NnOLzaGdaFR/+kwTv7YGGdhYWFpWV4wsdKDhbU1cyhRw+Eyf+vB0MREc3Di8ZTbtR8/ynPqgA7Kg5AaiT3srYDf7t1VF6ipeoTs7IeovBeMd/p4w9u7+jMAKxLKUJWfo67IoGcBa2vNCyU5XOZvPUOYmGhu6ODxlJIwnyo8ys7Gw8p7CH6nj1a73hiwIgFlVfnIuV/9+AQ9mFtaaHRkTCUQ8qBHcsgbOHhXPcpG9sNK3At+B3202vUesAIJZVXIz7mvrtkYPJhYG+JR7Jd4Z/wQ+Hq4wtbUDG6LE1HByF9VxdToPB+b1w4DL+FTzBjcDW0s7dFj9DxsjLuLZ+pWWo7GbFCGnJxCwM4Jjnz1ZgW81nCTuqKV+qBfjTz/Hu4/5cLRxbX2fTIGzmhvC+Rp2UfP3BIWmk7BEQjB0yPIFYbnmcDa8BFiv3wH44f4wsPVFqZmblicWMG4uKqJFZpy5N29jzKOHRwctKTgmKK9k5VmMDTZhw7t6BTDPHSevxlrh/GQ8OkMDO7WBpb2PTB63kbE3W3Ym2U5OSiEHZxqGx2t3aRwZYyuu51fbAzrQmP+02Wc/LExzsLCwtKyvHBixeU0f1cqf4qn2kc+KkFJKaBvYKQuUMMRQiTkgN9jDTJkysuVtT6yO9vUFRn0uNBdFA6EIiE4/B5YkyGr1y7J7mDbAM2ZFj09TXLWFByhCEIOHz3WZEBWt12S4c62AeqajVB1F0HT+mDYklDcN/eE/+wV2BF1Dbd3+mtudmYO3j6LQpGRm41Lkd9g9aw+MEg/gIX+oxB4UffDjkK1qirtI2YFyivkyvRTm+fbQACxiDl0Py1DmfZOVUXIupqG7KLaz/fSE4sh0qtC6ZMntZMf+RM8ZmJAJNa6cZnp83m9Vt0NwrQ+w7Ak9D7MPf0xe8UORF27jZ3+Wvs/Fz1IJGImMSzFkye1U7Dyimc1ujfdhw7t6BjDHFMfLArNQG72JUR+sxqz+hgg/cBC+I8KREPuFDB24uEpymobHUVZV5GWXQS5znZ+gTGsCppaMVJRXlH/h0Yj/tNpnLRQjLOwsLD8L3jBxOrFkKUmIL5QM92XXTyLcwXG6OHTRV1SjSE8pB2A61EIz9Q6QMuzsO+9kZiw8rS6oPkYekjRAdcRFZ4JTctyZO17DyMnrMRpXR/UqcepbTxDD6hEDkdtkffhvZETsPL0A3XJ86kqiMKByAJ0WhCCyJ1rsXjONIzs44D7GTeZX+pVzDGtCg+iAzF14irEVNpA6j8TSzccQmzER/CQZ+LS1WJ1S03AETEHfcKjwkJGczVlV3AlszmXfEToLu0EvZ+TkJij2U+efQCzfbwx+3C+ukQFp7UnPOwJl6OjkKtl4vKUM0jI4cPNo6u6pDGqUBB1AJEFnbAgJBI71y7GnGkj0cfhPjJuMgdcxj6Ne4+DVl494ERXEfttnqZu+RUkJheov+vShy7t6BDDVQ8QHTgVE1fFoNJGCv+ZS7HhUCwiPvKAPPMSGnKnqLsUnfR+RlJijsZ38mwcmO0D79mH8aBVS9i5ITgQMT9K6FEhCjVBgytXMjVy6EKT4yS/ZWKchYWF5X/EH5pYVRWexPtj5+Pr8G9xau/HGD/1a/zW/V/4YFTdB1by0HXWIowzu4TVY15HwL5TiI89hg2zXsf83ZdQae+mrtd8eF1nYdE4M1xaPQavB+zDqfhYHNswC6/P341LlfZwM9PRJEJDGIqrkBn9DQ6eSVM0jFmLxsHs0mqMeT0A+07FI/bYBsx6fT52X6qEvZuZesfnwzG0Q1sLQlbULhz5/hqu/xSLoJUT8db2W8zWClQ81YOpNXArah3mvr0Wh2O+x/n4E/gq8CDSRT0xsE/TfSgRdEcvDzGygj7Gx/uj8V10EFZOmYOjDwXNCAguOkz/AONNziFg4lxsC09AQsR2vD91Dc63mox5k1qr66kR9MbcDweDf2YRRr+7CaHx5xAdFIAJUzchy2k6Fk1pq67YGBwY2rWFBWUhatcRfH/tOn6KZWSf+BZUJqrA07pnT+og8JyDRSOEOL1wFN7dFIpvTzP7T5qKzTeqj/K69dF0OzrEMMcU1riFqHVz8fbaw4j5/jziT3yFwIPpEPUciIbcye0wHR+MN8G5gImYuy0cCQkR2P7+VKw53wqT501Ca1FL2LkhBOjeywPirCB8/PF+RH8XzcTmFMw5+hCC5swiTY4TCx1iXI5fwtfh4+Xf4AKbZ7GwsPzZoCZpaFWggDxWpqpWmCl4tIf8hQIasOW+eoUckez25+QjMKFJRxUre1Rt8LvOpMB/DSAnEyGJTZ2ozz++pATlMi4F9VcdlWYcoY/GeJAdU5/HNyDrToNo7q4U9eMZFKLUXs6v4NEefxIKBtCW+zWS0O3PfUhgMkn9naE0g458NIY87ExIyOOTgXUnGjR3F6VoGq6vI6ND2JvmJJCuomuKQnkhRX/Um1qLucRtPVNVhdEh48hHNMbDjkyEPOIbWFOnQXNpV03D9am9KlBOuTGraay7DRnw+SQydSCvCSvoaNx/qL/YmEbuzmPqVFBW2DIaK22r6kNsTs6936DAM3eVK+AapO6qQIaK28dp0fBO1ErCJ7GFKw16P4gOf+BG4lqrApuwAUNpejAt9O9KtoYC4kusqOOQBXQoXbWaq75/HlPq/vk0vIsNGQoEpG/lSv2nr6OYnOrtdWJNzdOwN8lcIKVVik7luRSzeiy52xgQny8iUwcvmrDiKMX9pz+JjUfS7jzG740+boHhUQrtnjeIOlrpk0BsSR1HfERLxtmSqOYxCTr0oUs7DE3FMFVkUdiysSRtq4pFsbkz9X4jkM7cfa43FUan4IX+1NXWkAR8CVl1HEILDlWvtlXQhJ1faAwzVNym44uGU6dWEibuLMh10PsUdPgDchPXXhXYqP+UNDVOmorxcoqf50BcgR9tVj6DhIWFheXPg57iH3WO9QopR/g/2mLi9X/i0o/sE9xZWFhYWFhY/p78oZcCWVhYWFhYWFj+zrCJFQsLCwsLCwtLC/EHXQqsQkHad7hSYg+f3k4wUJeysLCwsLCwsPyd+IMSKxYWFhYWFhaWvz/spUAWFhYWFhYWlhaCTaxYWFhYWFhYWFoINrFiYWFhYWFhYWkh2MSKhYWFhYWFhaWFeCWJVdX9aHy1bDn2XSpXl/xByK7jyCfLsTWh+n1tf09kV4MQsHwHkop01PJvaxcZrgYFYPmOJOhqCpY/ObI0BK9cjq8TH/yNYrX5cSq7fgSfLN+KhII/3gqyjKMIXL4ZcXmvtm9ZWjBWLv8aibq+n/XPwJMiPNJ6x+XfgRf195OiR1rv231xyjOPYtnUYRjgNxhTNl5Ul/4ByK4iKGA5diQVqQtajleTWP12Dnu++BLHrv3RidVNRG76AvvPF9Z6A//fjWfpYVj/RTAuPtJRy7+tXZ4hPWw9vgi+CF1NwfIn59kNhG/8AkHJv/+NYrX5cSq7GYlNX+zH+cI/3gqyW1HYwvSd9IqTumc3wrHxiyAk//7X8HT5hc8woNubCP4rJYI60Hx/l+PCZwPQ7c1gvLQp5DewaeY/sO5sPkzatUVbq7rvDX6FPEtH2PovEHzxkbqg5WAvBbKwsLCw1CAavR8FFZexin33WC3Kb3yPCznlf7sf7c33dzlufH8BOeUtYInKW8i8LYfLjO04sncX/jPFRb3hrw13FYP67xaj6rc4/HdPMoz9P8RUD5G6tCGeIfdiGIKCjuJUQgp+LTeFo7MFNHvIkH8lEiFHjiP8bDIyH3Bh7WQH4+f5X3YDoetP4KH3LAzjxWL33lAkpD+EpK0LbAy0csiqYvyccAKHQ0IR+W0iLmeVwKidM1pJVHUUp+EDt6XC0LEY0dv349vMclh3cIaZgNlWcBWRh4JwNCIOP2VXwsLJEeZC5W5KnuVeRFgQs/1UAlJ+LYepozMstE0gy8eVyBAcOR6Os8mZeMC1hpOdMRoN6Se3EXNoL4IjzuHncis4lsViU0QZ/Oa9jd6mar3kD5AaeQgHQiIQd/kOys0c4Vzdsa52YZA/SGX0O4AQRr/Ld8phpi2/LANH125BipE3WueFY/++ozh94RZKzZzgbCmCnrpabWTIOLoWm3/SR0/zXxCyax9OnkvH72J7tLfRr5XZN2k7hie3Y3BobzAizv2McitHlMVuQkSZH+a93RsaUzSmw3UcCdyGVENHFEdvx/5vM1Fu3QHOCudqoTg9vnZLCoy8WyMvfD/2HT2NC7dKYebkDEuRlqaNxFLpj3sQuD0ZnK5StNPX7PPkh90I3JECcQ8P2ClipzHfVVP6C+KP7MOhkwm4/sgY7YzSsPvzcBS5esHZSNV2VfHPSDhxGCGhkfg28TKySozQzrkVlGGto9710d1/jANxMSwIQUdPISHlV5Sbaushw/UjgdiWagjH4mhs3/8tMsut0cHZDLUkqEzH8fVhKPadgxl9LFTtN9ru8yhFVlww9h4KR2JmKTNOBbj49XrEy7vD016svAz1yZYkcLpo+UZxaWDVViTzVHVUyPEgNRKHDoQgIu4y7pSb1ZmjGuZl41R2IxTrTzyE96xh4MXuxt7QBKQ/lKCtiw1qD9nG5FP5bkuKEbxb5yF8/z4cPX0Bt0rN4ORsCe0w1kYZ+5viIHPrAUcDubKNrVdN4NXqHsL27sWxsynIFdqjYxtDVN5NwuHd+xEal4YiI2e4WotV84ByrtiMn/R7wvyXEOzadxLn0n+H2L49bPRVClSmH8f6sGL4zpmBPhY1RmlkLKj0abYsSl7OTiXJu7BmVySSb/0OeUUBioSd0dPB4KWOJRpkSAv+BFuSOOgibQdNOAZh1dZk8Lp7wF6s8oMuvmx0HmiAWv4W3Whiji9B8q412BWZjFu/y1FRUARhZ084GDACNOG7uuM/424mYo6GIeb7GyhCFR7ezoPEQ4q2zC6N6VD6426s3noUZ2NjEVvr8x1+EXtAqmigQZ7gdswh7A2OwLmfy2HlWIbYTREo85uH6b1NVVV0mYt1QfGA0Jam8uJS6swX0vBdReqSBpBl04k57mTM1Sc7j/40oLcrmQsEZDdiA10qUVSooGubBlMrvgk59vSjQX6e1NaAS0bSZZSo3N4AT4/TFFMe2XbtRtbGtuTeuxd1sBQS37I/rbnwWFWnPJU2D7clgcSGuvV9jV7r241sxBzit51Cweo35T89PoVMhc7UydWaXLz7klQ6m0J/l9Nvke+T1IRLElt36uvnRU4mPBK7TKeQbMU792WUfWIOuRtzSd/Og/oP6E2u5gIS2I2gDSqFGJWu0abBrYhv4kg9/QaRn2dbMuAakXRZIj1Ppcqbe2iCA6ODiQN5+vSg9uZm1KmbE/EFvvTlL6p3/csfJlBAXyviMzp19vEj3y7WJBba0+itqfRUUUEXu5CcHiYEUF8rPklsOpOPny91sRaT0H40bU1VtsK0c5LeYvbrPmwI2ZnZk7RvP/JoIyGOyIXejSxgWmiIp3TyLUsSdPajfjbm1N53KA3u2Zb0eRbk+0kSPVLW0cF2VEk390wgByGfTBw8yadHezI360TdnPgk8P2SVKbQRQeFLYTk3MmVrF28qa9USrNDf1dt0+LpybfIUtidhg2xIzN7KfXt50FtJBwSubxLkQVqTZuIJdnNdeQjMqShO+5r2eYhBb9uRkKvtZTByNyk7xhkWQfpTRcx8YwYm/v0JBcLI3Lo3YPaCDrT0ouVyjrlqZtpuK2A0bsb9X3tNerbzYbEHD61nRJMyrDWUe/66OI/xXA+QXPcjYmrb0ce/QdQb1dzEgjsaMSGS+rYfkrHp5iS0LkTuVq7kHdfKUlnh1I9CUpDaKKRgHp9lslEhS7tNkDlbTowxZnEAivqPGA4DXS3IfNOfuRtKyLfL39RVikNmUhGgl70WaZqDCkpPUhjJYKaOoxzKCGgL1nxJWTT2Yf8fLuQtVhI9qO3UnU41adl4lQ5B/FsqWs3azJm5pvevTow8cgny/5rSDNkm5JP5Tth92E0xM6M7KV9qZ9HG5JwROTybiRVh3FdlLEv8KCVqYrYUrUh6T6YBrSxpPbefuTjYko8vj1NDlhEfW1bk5tPP5La6RNH4k5Lz1ePM8VcIaDOfv3Ixrw9+Q4dTD3b6hPPwpc+SVJFTV0fND0WXlCWFrBT0dk1NNnblrhcG+o5diotO3H3JY4lyk1alFLIRCMS9PqMaofjWJLUzPO6+bLJeaABavm7yTm+iM6umcyMJS5xbXrS2KnL6MRduU6+qzv+PSa+T3Mn9ydHIZfM3UfQpGmf0OlCeZM6FEUto1HDhtEwxWf4cBrh70++zvqkx/jmzRPPmdMqb9KeCQ4kZPIJB08f6tHenMw6dSMnvma86zIX68r/KLGSU+6BcWTBs6Ex/81QCy2ngrgPSaovpC5LkpkkJJH+7SQg1wXnmLBTUXJhCUktXOifp56oS+qgPHhwiGs9nDZdVU278vxYWijVJ5HnalLETeHB8WTKd6V5sRoHPE5aSJ34Ihq8PVf5XTkYGEd2XnSBanp6fIpm2vHJYshGuqYWqOLWDvJnJkeHefFUlnuAxlnwyGbMfymjejwXxNGHTN/CLksouVyh0r/JSeBKC87VaEQXlkjJwuWf1KBK8jzaP9aM+O0m08HbFcoi2f0omttFRHr86gFXQtHvORDfdhztTK9u5DFd+rQ/mUq8aG2aYrA0bRcqiab3HPhkO24naZq5RJ/2NyUJkwQomlENOqYdu0kU9AujkILfmf2ceaQ/YhcVqErqoJoQONzWNGp7utqXRZQc4E2GQg8KuFJJch1sJ8/bT2PN+NRu8kFSmUJG96PmUheRHvGrD1g66aCyBb/zIrrQkM3VKCcbDpfsJgWRRtX3yJmnTyN2qTRtMpbkv9KWgfqkP2gbMXOPEnkBo4eJhPptyGI00MF3TAwEjbcgvv0k2n9TJYgsN5re95AwMVCdWBXSwfGmxHedRxpRHlPSwk7EFw2m7blM5zrqXZ+m/cc4kA6MsyCezRj6r8aBFPehlPSFXWiJwoHqiZXDyLyoMQG0Eyud2q2LnPIZv1jwHekfx+8yaY6iKI+i/92VRHr8ZiVWJYy/Hfi2NG5nes088PjSp9TfVEJea9PUJbVpqThVzUFcsh6+iVRDltErdiEzP4rIc3Wqcpem5av2nR1NCvqFVNb6nYk5Z+LpjyB1GNejocSKw21DEw/+qrJnSSzNdeKRntCdFiYUMpIp3HKEJrVi5sK58YoaikZUc0XrUbQ9XT3fFSVTgLchCT0CSBE2tX2gw1h4QVlayk5Fu4aTUDCQtv6mGswvfCyph+6JVeMy6jAPNED9xKqpOb6Idg0XkmDgVlKZQjffNTj+n4bRm8yPaOmqayp/voAOjy+sJG9mTu0y/ywxeVkDyClv/1gy47ejyQdvk2pY3qeouV205gRddNCd55wcfNUUIyYsFsUdp2P5jI7q07EcWA5Yhg+HS5B58gTz1QSmxoTsU19h3b4YpOVXwMD7M/z04Ca2jdBX7tEwXLi8tQLvdVO9kZBjNRBL5w0EPzUSkT/LYTxiPRKTI7DKT33qD1XQs7ZFa54cxUXF6jIGThv0H+6B6p4qzocjOq81xi98F10kqjKB80zsTEjGmeVeKI8JQ2xxR0xfPgMd1WcOOZYDsOzD4ZBknsSJlGeMSqYwpmyc+mod9sWkIb/CAN6f/YQHN7ehQZVK4hARXwK3NxdjkpPq3DHXZiiWz+0HcfWp3/JEHAvPgXW/oXB7nIYffviB+aRD1msg3JGCiMgsdcXG7VKeeAzhOdboN9QNj9MUbTCfdBl6DXQHUiIQmSVX7qdox9Z/NiY4qK9/mvrCz0Mfz/Jz8aC6SgNwXd7ExzPcoDKdCXotmIfB4jREhd9AsQ62K4mLQHyJG95cPAkqU3BhM3Q55vbTnO7XXQcO2vQfDkbsxuHawn/2BGhU9WP2eYb83AfK703GEscOr7/hB9754wi7p7jLswoFEccQL/fF5IntwNXFd8Xf4sTZYnSduQJTXFSCcK2HIOCDoTBWflNgjBHrE5EcsQoaUfRgbdsaPHkxioqr74XQUe8GaMx/jAMRFluMjtOXY4bGgRiw7EMMl2Ti5IkUVRkDp01/DNdVgGa0q6EU8SfjmLllCv412k51iZ3TCoM+/hcGSLSulzRJORKPhSPHuh+Guj1GmtI3PyBd1guqcIpU16tNi8Yp1wVvrXgPqiHLgdXApZg3kI/USEXfusvHtfXH7AkOUEWPKXz9mHntWT5yGxuwdeBYD8P01+1V9jTwgLsLF7yu4zHD11x5uZZj5o5uDnooevhQUUMNM+e8+TFmuKknTJNeWDBvMMRpUQi/UWc9mc7zWHNleXV2etFjycvQuIy6zgNN0cw5vjm+a3L8N08H+Z2DmD35M2T1+hxHPh8E8wYzmhLERcSjxO1NLJ7kpLr1gGuDocvnol/1gbQZOujCSyVW8pvf4B/9fODjo/70exP/zdRhsMrzce/+U3AdXeBa6+YiAzi3twXycgBeZ8zfvBbDeAn4dMZgdGtjCfseozFvYxzuPlNXbxAu2rV3rXXfhqFDO1ghj+lTBp6JNQwfxeLLd8ZjiK8HXG1NYea2GIkVAFVpLXHgmMHSgqv+ApTl5KAQdnBy5KtLFPDQ2k0K11ZC5N+7j6dcR7jUVggGzu1hy/Sdo+i783xsXjsMvIRPMWNwN7SxtEeP0fOwMe4uGlJJnncX98s4sHNw0LoHiwPT9k6wUnuu6lE2sh9W4l7wO+jj7Q3v6s+AFUgoq0J+zn1VxUbt8gyPsrPxsPIegt/po2mD+QxYkYCyqnyl/Cr0YG5pwbRWDQcCIQ96JIe8kXHLc+qADtqdS+xhbwX8du+ODrarQN7d+yhjEhUHB606HFO0d7JSB3FVM3TgwKyWDs9Bz7xWDIAjgJCnB5KrYrzpWOLAeswUJgH5EaGhv0JelYuTxxKhN/ANjGvN0cl3spw7uFsugL2TdgwA+oxtbGpGLw8m1oZ4FPsl3hk/BL4errA1NYPb4kRUgKAJax31boDn++8uM5zv4f5TLhxdXGvJyDgQquFcHYOMBGaW0DZpYzSn3RrkD5CTWwqOTVu0qxUqLnC2bobmVY+Qnf0QlfeC8U4fLd94D8CKhDJU5TNzVD3kLRun3HZo71prxMKhHWP0vHvNkk/PvLbNOQIheHoEeWMDtg56FtbQmI8DLvO3nqEJTGpyVR54iu21Xj3Lg1OHDrXmHIm9PTPn/IZ7d2snVrrPY82U5RXa6UWPJS9D4zLqOg80RfPm+Ob4runx3wwdipOwctJcRBjMwt79c+CmHWjayPNw934Z8zvXAbWHZXs4qQ+kzdFBF2qm5j8UPTHEIj1UlT7Bk1rOluPJ41JApLhxlEkgfBYhNCMX2Zci8c3qWehjkI4DC/0xKvBig4mICkL506fM9KWh6kkpypjfC0YGhLtB09Bn2BKE3jeHJ5OVr9gRhWu3d8Jf/YNYgx44HM0vXIFYxLj8KcrKtCOrCkVZV5GW/Qh8ZrteVSme1FYI8iePmd/QIkZfxtTMBOuzKBQZudm4FPkNVs/qA4P0A1joPwqBF+trpCeRQMwMmtInT2rpg/IKPFOLwRGKIOTw0WNNBmSqS7taHxnubBugqtioXbgQioTg8HtgTYasThvMR3YH2waof70w6Olp7KIrVP4UT7U7pxKUMK7WNzCGuEnbcSGRML/4qX6d8opnjGYKOM3TgcOpOYPwfPQYXdV/1qNKt1gy98eUEca4GBqK29lhOHZehKFvjFImxrr4ThkDkKGs9Km6QRX0tBRPq0Ox6i6CpvXBsCWhuG/uCf/ZK7Aj6hpu7/RXnw3WoJve9Xm+/4yY4SyGSK+qfpzKn0A1nLWk0ONAa1g1SrParYZroIxnKmXkqyXvUyZWtMcu41um1SrtoopyVFQfOThCiIQc8HusQYasrm8IsjvbVPVqodeycUrleFrL6FV4UlrGGN2oefIxQfwiPtdGj8v4Tf237tSfc6ikhBnT+jAwqt2a7vNYM2V5ZXbScfwrqX0saRDFRMNkDbXDsaJ+ItOYjM2YB5qiOXN8c3zX5PjXVQdZFvbOeAOf3+mJT49swPDqMw0NoSeBRMz8IK6XbzDjXX0gbZYOOtD8saIF13U29ieex/nz6k9iEN7toENmzmkNTw970OVoROVqaVqegjMJOeC7eaDqQTQCp07EqphK2Ej9MXPpBhyKjcBHHnJkXroKrROtdZDhetJ3KKxpthQ/nE1CoYkUXm6PEHUgEgWdFiAkcifWLp6DaSP7wOF+Bm4yeU1VIym9qLsUnfR+RlJiDpP+qZFn48BsH3jPDgHHwwP2dBnRUblaE0k5Us4kIIfvBo+uPDyIDsTUiasQU2kDqf9MLN1wCLERH8FDnolLV+trxGnlhR5OhKux30Lz7LZyXElMRs0jRww9IO0AXI8KR6bWj0B51j68N3ICVp5WXbZq1C6dBUwzUnTAdUSFZzI1q5Eja997GDlhJU6/5ANLZKkJiNd0jrKLZ3GuwBg9fLqhtWdTthOhlVcPONFVxH6bp6lTfgWJyZqHnr5qHWpRVaBjLBli8JSRsEyJxO4dx/GjMZNoDVef49bBd1y7XujRrgpXE+KhucjyDBnx55GjnnSrCqJwILIAnRaEIHLnWiyeMw0j+zjgfsZNpiaTPLSA2s/3XxdmOHvCw55wOToKtYfzGSTk8OHm0VVd0jxerF0zePVyA66dRbTy8quKiqsJuJCvOZvOETETKT1CYaGmrOzKFWhOuBvCQ+UchNd2Dva9NxITVp5WF2jDadk4lV1H0neFmnZKf8DZpEKYSL2YLy8i3x+NDKlM3GrCpgwXz55DgXEP+HSpc3pB53msubScnRQ/SmrQefzrAgciJtmmR4XQhGMZrlzJ1BxrdOCPmAdUKBJF9Z8KWtB3OulQVYSEjyfg31H6eHt3EP7dRfODuUE4reDVwwl0NRbfaj0EtfxKIpKrD6QtHH8vlVg1ThXyU8Jw+PDhWp8jx75ntgnQe+6HGMw/g0Wj38Wm0Hiciw5CwISp2JTlhOmLpoBjag3cisK6uW9j7eEYfH8+Hie+CsTBdBF6DuzDTJ/Pg/Do1GJMXrwHp+OjsHfpOEzbkQfP+Qvgb2wIu7YWoKwo7DryPa5d/wmxQSsx8a3tuMXsWVFR+6yANtwO0/HBeBOcC5iIudvCkZAQge3vT8Wa860wed4k2PeZiw8H83Fm0Wi8uykU8eeiERQwAVM3ZcFp+iJMacuDSqV1mPv2WhyO+R7n40/gq8CDSBf1xMA+DWgk8MScRSMgPL0Qo97dhNBvTyNo5SRM3XxDMyHzumLWonEwu7QaY14PwL5T8Yg9tgGzXp+P3ZcqYe9W3W4jdjFUNDMLi8aZ4dLqMXg9YB9Oxcfi2IZZeH3+blyqtIeb2cuFSlXhSbw/dj6+Dv8Wp/Z+jPFTv8Zv3f+FD0aZQNC7KdtxGFPMwaIRQpxeOEpZ59vTQVg5aSo2a92r8ap1qAVH91iS9J+GcW1+xJbNP8By1BQMVN3mppvvBL0xd8FAVB7/F8bO347wmNM4+MlkTFqfqowBxQ9LjqEd2loQsqJ24cj313D9p1gmTibire1KSVBRc2qrPvKbJ/Dpx8ux52KZuqRhGvOfUsYPB4N/ZhFGK+I0/hyigwIwYeomZDlNx6IpbdWtNJMXapeHLu8uwSSTeCwZPRPrj0fj9KFPMHnqZmRoTZiC7r3gIc5C0McfY3/0d0y7KzFlzlE8FFTHCA9dZy3COLNLWD3mdQTsO4X42GPYMOt1zN99CZX2TPLWAC0ap0zid2rxZCzecxrxUXuxdNw07MjzxPwF/opWXki+P5YqFJ58n4nbrxH+7Sns/Xg8pn79G7r/6wMowqYWOs9jzaXl7CQ0NIS4KhPR3xzEmXTZCx9L6iNA914eEGcF4eOP9yP6O2b+WzkFc44+RE046sDLzAPNQwhDQzGqMqPxzcEzSCvp3GK+a1oHGX7e/TamfnUbrnNWY3rru7j0o+q+uR9++BGXfn6o+SFSgwCecxZhhPA0Fo5S5Bvf4jTjq0nMnFAzLFs6/ugVoFoVqDyrWe+jJxqjrkX0OHU/zR/ehWwMBSTQtyLX/tNpXUyOenUAUUVWGC0bK6W2JkLi8cVk7tyb3gg8Q3dl6gp1Ua58EtHggN0038+JTIRCMm7rRdO+TKR89WoBeW4MrR7rTjYGfOKLTMnBawKtOBpH/+kvJuORu5V1lCs5BJ4UmF6no9J0Cl7oT11tDUnAl5BVxyG04FD1SimGx6m0f/5w6mLDbBfok5Vrf5q+LoZyahYUVFBW2DIaK23LyMYjvticnHu/QYFn7tLzVCJ6RCm759GgjlakLxCTZccR9NGScWQr0jxuQbGqJOPIRzTGw07VroE1dRo0l3alqBfD62AXJaUZdOSjMeRhZ0JCHp8MrDvRoLm7qLoZ1YoRAXmsTK3xEVNIYW+ak0C6iq41uHBCtZqF33UmBf5rADkxvhSbOlGff3xJCdorPJq0HcOjFNo9bxB1tNIngdiSOo74iJaMsyVRzTJ2hiZ1UNhCQJ6B6Y3YXKGq9sooNU81K1gU6BJLKirp4tLOxOe50Affq1Z3amjCdwrkBZS04U3ybsfoJDAgW8+p9HnAWDLnu1PAVYV8csqNWU1j3W3IgM8nkakDeU1YQUfj/kP9xcY0cnfec/UuPz2LbLlCGrqzUF1SFx39R48pdf98Gt7FhgwFAtK3cqX+09dRTI0DVauCBJ6BVHdY1aLO4xaabrdhnt44QguHuZGVWEAGtj3orS8X02Dm75pHKTBj8fbxRTS8UyuSMHOLhesgej/oMH3gJtaqowinI/TRGA+yU85BBmTdaRDN3ZVS85iJBmmBOFXOQaLBFLB7Pvk5MXWExtTWaxp9mZivXPlWTePyqXwn8FipWvmr5mnYm2QukNKqhgdsndhvqI1HtMdfSIIBW+h+tTCy2/S5j4BMJh1VfVfOFXzqOjOQ/jVAMeeIydSpD/3jywSqDpv6KzObGgsvKAtDS9hJXhhNH/VuTWIul1rPjHq5Y0ldKm7T8UXDqVMrCXNcsCDXQe9T0OEPyE1ce1Vg4zLqMA80QP1VgU3N8XIqjP6IercWE5fbmmZGKVbsNu27Bse/1pyq6q8pHW4qVyQ2lFswPzNJMvag5nhch0cpu2neoI5kpS8gsWVHGvHREhqn9QiWpnXQHT3FP4xQLCyviHKE/6MtJl7/J/PLYhXYhzk3k6pHuJP+GwTtXGFrqLnMXrR3FNq89wT/+SUW/7J9mTNxz/DD4j7Y6J6AI280tFrnb+K/skMYZzkDhaszcW6hg7qQ5ZVRHo5/tJ2I6/+8hB9XdQU77Fn+P9GC10ZYWFhaHMrD4Vnd4TZ+O36pPm1dfh17Diah0qUXvFq93BCW3zmOrRc6Ypxf9ZPGWVhYWFheBjaxYmH5M8N1wT8+nAbr8x/A080brw0eAE8Xbyy96oqFXy2E50ueCuDavoYvQndjojU7FbCwsLC0BOylQJZXTBUK0r7DlRJ7+PR2QvV92yzN40lWPMIiz+NWoQwS2254bdwoeLb6Iy6w/E38V5WLK3HX8Kx9P3i1a+7ic5ZmU1WAtO+uoMTeB72d2FHP8v8LNrFiYWFhYWFhYWkh2PP/LCwsLCwsLCwtxJ8gsZIh42gglm+O03oIZkPIcOPYGixd9hXO3GvOY9OehwxpwSux/OtEtORzI//uyK4fwSfLtyKh5gml9ZGlBWPl8q+RyBqWhYWFheX/GX+KxOpW1BZ8sT9J8zTxhiiKxH/eX4Njee3Q3VaHp7s3yTPcCN+IL4KS8Tt7MVRnZDcjsemL/Thf+HyjPbsRjo1fBCGZNSwLCwsLy/8z/jKXAosu/IiCXgHYv3Es2AVMLCwsLCwsLH9GuKsY1H83m9If9yBwezI4XaVop695s+KTH3YjcEcKxD08YKd4jY/8AVIjD+FASATiLt9BuZkjnC2qV+bIcPPkVzhW0AOzxpog+cAehJxOxq0npnB0toRY2WwVSu7fxL1yW3gO6Kx8ga0KGQquRuJQ0FFExP2E7EoLODmaQ9Gl4nLUJ1uSwOmiJZvsKoJWbUUyrzs87XlIP74eYcW+mDOjDyzUbT7LvYiwoCAcPZWAlF/LYerojBpRGWT5VxAZcgTHw88iOfMBuNZOsDN+3uosxWXOtdiSYgTv1nkI378PR09fwK1SMzgxuom0XkZZVfwzEk4cRkhoJL5NvIysEiO0c24FCacUP+4JxPZkDrpK20Fj5if4YXcgdqSI0cPDTqmz/EEqIg8dQEhEHC7fKYdZHdkVlP4SjyP7DuFkwnU8Mm4Ho7Td+Dy8CK5ezjBS27r45wScOByC0MhvkXg5CyVG7eDcSqLMwmU3QrH+xEN4zxoGXuxu7A1NQPpDCdq62MBAbcPK9ONYH1YM3zkz0KfasI3GAIMsH1ciQ3DkeDjOJmfiAdcaTnbG7IMFWVhYWFj+WihWBb4ospvryEdkSEN33Nd6zcJDCn7djIReaylDRiR/mEABfa2IL7Ghzj5+5NvFmsRCexq9NZUUD8JXPOpe8ah+Xuuu5G5rSvZSP/LztCcDjpDazwyjPGXDMkoP9CSB6RQ6rtqJafg3inxfSiZcCdm69yU/Lycy4YnJZXoIZTP91n9dAkPpQRorqX6tRSmFTDQiQa/PSFVFRtkn5pC7MZf07Tyo/4De5GouIIHdCNpwqURRgSqubaLBrfhk4tiT/Ab5kWdbA+IaSWlZomp7fVS6CbsPoyF2ZoxufamfRxuScETk8m4kFaiNVp66mYbbCkhi0436vvYa9e1mQ2IOn9pOCaYcuYxurvMhkeFQ2lHzzgaGh8H0upmQvNZmMJLL6WFCAPW14jNtdCYfP1/qYi0mof1o2ppabTAZZR18k1zEPDKyl5JPTxeyMHKg3j3akKDzUrqofJ9AOaVuHk62AgnZdOtLr73Wl7rZiInDb0tTgnOUPla+ooFnS127WZOxrTv17tWBLIV8suy/hi48VrRR3/ZNxkDFNdo0uBXxTRypp98gxv9tyYBrRNJlifQ8y7KwsLCwsPwZebl3Bcp/pS0D9Ul/0Da6qz7mywv201gTCfXbkMUcykso+j0H4tuOo53pT1QV6DFd+rQ/mUq8aG2a4miuSj44XFsat+c2qd6k9pi+m9+B+Ab+tLtA8b1+YvX41Eyy41vQkI3X1O8GqqBbO/zJiu9A8+LLm51YyXMP0DgLHtmM+S9lqPuQF8TRh1J9EnZZQsnlFZT4bycSuC6gc9UvIyq5QEukFuTyz1NUrV1tqnWzo0lBvzBpi4LfGZs4E09/BO1S6lZIB8ebEt91HsX+rqzA8JiSFnYivmgwbc+VM2beQgP19WnQtrvqBFZOBfvHkomkH23IYoQviab3HPhkO24nacx8iT7tb0oSJsFVmFmeF0TjLfhkP2k/3VQKIqPc6PfJQ6JH/OrEqvAgjTflk+u8WEZKNY+TaGEnPokGb1e+40uZWHG4ZD18E11VZj1yyo9dSFJ9EXmuTlXuUtv2TcdAReK/yUngSgs0hqULS6Rk4fJPOtWwYVlYWFhYWP6U1FxUeyE4dnj9DT/wzh9H2D3FnedVKIg4hni5LyZPbAdueSKOhefAut9QuD1OU7+BOh2yXgPhjhRERGap2mHg2IzEnClOECi/GcKrnyeMnuUiJ1/rlfQ1VOB8eDTyWo/Hwne7QKIsE8B55k4kJJ/Bci/FhbHmURwThtjijpi+fAY6qq9QcSwHYNmHwyHJPIkTKTKYmBqDsk/hq3X7EJOWjwoDb3z20wPc3DYCDb1lrRqurT9mT3BQXq4DTOHr5wH9Z/nIfaBY3WiMEesTkRyxCn6mygqMGfVgbdsaPHkxioqJMfPreMOPh/PHw6AycwEijsVD7jsZE9txUZ54DOE51ug31A2P09Rv+k6XoddAdyAlApFZchR/ewJni7ti5oopcFEKwoX1kAB8MNRY8UWF8QisT0xGxCo/RkoVVXrWsG3Ng7y4CIwoKrgueGvFe+imfO4fB1YDl2LeQD5SIyOVm2uhQwxwTExhTNk49dU67ItJQ36FAbw/+wkPbm7DiMYMy8LCwsLC8ifj5RIrZnfrMVMwWPwjQkN/hbwqFyePJUJv4BsY15qDqkfZyH5YiXvB76CPtze8qz8DViChrAr5OffV7TAtWVjBUnuxH48PHmSQNZRXoQw5OYWAnRMc+eoiBbzWcJO6opUq02oGcuTfu4+nXEe4uNa+q8fAuT1skQeFqJ3nb8baYTwkfDoDg7u1gaV9D4yetxFxd5+pazeMnrklLLR04wiE4OkR5HJFpsKDibUhHsV+iXfGD4GvhytsTc3gtjiRSR8JVYpEimONMVMGQ/xjKEJ/laMq9ySOJeph4Bvj0JpThUfZ2XhYeQ/B7/TR2Jj5DFiRgLKqfEb2cuTcuYtygT2cHLT104dzextNEPBMYG34CLFfvoPxQ3zh4WoLUzM3LE6sAKiKSZvVcNuhvasqBVZhCId2VkDePfV3DbrEAK/zfGxeOwy8hE8xY3A3tLG0R4/R87Ax7i4atywLCwsLC8ufi5dMrBjM/TFlhDEuhobidnYYjp0XYegbo5Q3mHOEIgg5fPRYkwGZ6rKj1keGO9sGqBth0NOD1r3cTSCAWMQkCE/LUKa9or+qCFlX05BdpMjGFO0xyYD29opyVCiTmbroQSwWQa+qFE+e1H7mg/zJY5RCxPTHAcfUB4tCM5CbfQmR36zGrD4GSD+wEP6jAnGxsQygMd2q7iJoWh8MWxKK++ae8J+9AjuiruH2Tn+mVw3m/lMwwvgik8DeRnbYMZwXDcUbo6wYB3IgFAnB4ffAmgxZHRszH9kdbBsggkQiBmRlKH2qblAJ4SlTUG2RqrtBmNZnGJaE3oe5pz9mr9iBqGu3sdO/zh3wVI6nT7XtVIUnpWVMnmak/q5BpxjgmMJnUSgycrNxKfIbrJ7VBwbpB7DQfxQCGzUsCwsLCwvLn4uXT6xgiMFTRsIyJRK7dxzHj8ZMojVcfSHJ0APSDsD1qHBkap15kmftw3sjJ2Dl6QfqkuYiQndpJ+j9nITEHM3DQuXZBzDbxxuzD+eDI2IO6PQIhYWa7WVXriCzwWeLctDa0wP2dBnRUbmaMzMoR8qZBOTw3eDRuRjRgVMxcVUMKm2k8J+5FBsOxSLiIw/IMy/harF6l2ZSVRCFA5EF6LQgBJE712LxnGkY2ccB9zNu4pkiMawWxnAwpoy0RErkbuw4/iOMmURLY2YpOuA6osIzoTGzHFn73sPICStx+oEe7Hr1QLuqq0iIf6jezvAsA/Hnc9SJVRUKog4gsqATFoREYufaxZgzbST6ONxHxk0muWEEqbGL7DqSvivUfC/9AWeTCmEi9VIXaNFkDOTjQXQgpk5chZhKG0j9Z2LphkOIjfgIHvJMXHpRw7KwsLCwsPwPaIHECpD0n4ZxbX7Els0/wHLUFAysfucmrytmLRoHs0urMeb1AOw7FY/YYxsw6/X52H2pEvZuZuqKzYWLDtM/wHiTcwiYOBfbwhOQELEd709dg/OtJmPepNYQdO8FD3EWgj7+GPujv0N00EpMmXMUDwUNqyzoPRcfDubjzKLReHdTKOLPRSMoYAKmbsqC0/RFmNLOHNa4hah1c/H22sOI+f484k98hcCD6RD1HIg+L6gKx9AObS0IWVG7cOT7a7j+UyyCVk7EW9tvMVsrUPG0+nySBP2njUObH7dg8w+WGDVlYM0LcXldZ2HRODNcWj0Grwfsw6n4WBzbMAuvz9+NS5X2cDPjKPVbMLASx/81FvO3hyPm9EF8MnkS1qdWn93jwNCuLSwoC1G7juD7a9fxU2wQVk58CypRKlAjCpOwnlo8GYv3nEZ81F4sHTcNO/I8MX+Bv7qCFk3GgAVMrYFbUesw9+21OBzzPc7Hn8BXgQeRLuqJgUrDyvFL+Dp8vPwbXGDzLBYWFhaWPzPUIlTSxaWdic9zoQ++V63r01BKGUc+ojEedmQi5BHfwJo6DZpLu1IeqberVs4JPFZSqnLJv4qnEdOplaAbrbiiKKy/KlBBaXowLfTvSraGAuJLrKjjkAV0KL16ZVkF3T6+iIZ3akUSvpgsXAfR+0GH6QM38XMet8DwOJX2zx9OXWwMSSDQJyvX/jR9XQzlVMtVkUVhy8aStK0JCXl8Eps7U+83AunM3eoG6vIc3cLeJHOBlFZdUxTKKTdmNY11tyEDPp9Epg7kNWEFHY37D/UXG9PI3XmqnRRUXqSlnfnEc/mA6ps5g458NIY87FSyGVh3okFzd1GNmRnkBUm04U1vamciJIGBLXlO/ZwCxpoT3z2AripFyaWY1WPJ3caA+HwRmTp40YQVRynuP/1JbDySdufJVasCRYMpYPd88nNi+hIaU1uvafRlYr56xWLdVYHKkiZioIKywpbRWGlb1XaxOTn3foMCz9xlPK+gnOLnORBX4Eebc6p7YWFhYWFh+bNB9H8rm1Nol0F9qQAAAABJRU5ErkJggg==;" vertex="1" parent="WIyWlLk6GJQsqaUBKTNV-1">
          <mxGeometry x="120" y="20" width="598" height="71" as="geometry" />
        </mxCell>
        <mxCell id="QT5-kErvMyWDPy3g1TAe-7" value="" style="endArrow=diamondThin;endFill=0;endSize=24;html=1;rounded=0;entryX=0.99;entryY=0.962;entryDx=0;entryDy=0;exitX=0;exitY=0.5;exitDx=0;exitDy=0;entryPerimeter=0;" edge="1" parent="WIyWlLk6GJQsqaUBKTNV-1" source="zkfFHV4jXpPFQw0GAbJ--19" target="zkfFHV4jXpPFQw0GAbJ--1">
          <mxGeometry width="160" relative="1" as="geometry">
            <mxPoint x="320" y="340" as="sourcePoint" />
            <mxPoint x="480" y="340" as="targetPoint" />
          </mxGeometry>
        </mxCell>
        <mxCell id="QT5-kErvMyWDPy3g1TAe-8" value="Motor" style="swimlane;fontStyle=0;align=center;verticalAlign=top;childLayout=stackLayout;horizontal=1;startSize=26;horizontalStack=0;resizeParent=1;resizeLast=0;collapsible=1;marginBottom=0;rounded=0;shadow=0;strokeWidth=1;" vertex="1" parent="WIyWlLk6GJQsqaUBKTNV-1">
          <mxGeometry x="508" y="240" width="192" height="100" as="geometry">
            <mxRectangle x="550" y="140" width="160" height="26" as="alternateBounds" />
          </mxGeometry>
        </mxCell>
        <mxCell id="QT5-kErvMyWDPy3g1TAe-9" value="- potencia:int" style="text;align=left;verticalAlign=top;spacingLeft=4;spacingRight=4;overflow=hidden;rotatable=0;points=[[0,0.5],[1,0.5]];portConstraint=eastwest;" vertex="1" parent="QT5-kErvMyWDPy3g1TAe-8">
          <mxGeometry y="26" width="192" height="26" as="geometry" />
        </mxCell>
        <mxCell id="QT5-kErvMyWDPy3g1TAe-10" value="- tipoCombustible: TipoCombustible" style="text;align=left;verticalAlign=top;spacingLeft=4;spacingRight=4;overflow=hidden;rotatable=0;points=[[0,0.5],[1,0.5]];portConstraint=eastwest;rounded=0;shadow=0;html=0;" vertex="1" parent="QT5-kErvMyWDPy3g1TAe-8">
          <mxGeometry y="52" width="192" height="26" as="geometry" />
        </mxCell>
        <mxCell id="QT5-kErvMyWDPy3g1TAe-11" value="" style="line;html=1;strokeWidth=1;align=left;verticalAlign=middle;spacingTop=-1;spacingLeft=3;spacingRight=3;rotatable=0;labelPosition=right;points=[];portConstraint=eastwest;" vertex="1" parent="QT5-kErvMyWDPy3g1TAe-8">
          <mxGeometry y="78" width="192" height="8" as="geometry" />
        </mxCell>
        <mxCell id="QT5-kErvMyWDPy3g1TAe-12" value="TipoCombustible&#xa;&lt;&lt;enum&gt;&gt;" style="swimlane;fontStyle=2;align=center;verticalAlign=top;childLayout=stackLayout;horizontal=1;startSize=40;horizontalStack=0;resizeParent=1;resizeLast=0;collapsible=1;marginBottom=0;rounded=0;shadow=0;strokeWidth=1;" vertex="1" parent="WIyWlLk6GJQsqaUBKTNV-1">
          <mxGeometry x="770" y="240" width="192" height="100" as="geometry">
            <mxRectangle x="550" y="140" width="160" height="26" as="alternateBounds" />
          </mxGeometry>
        </mxCell>
        <mxCell id="QT5-kErvMyWDPy3g1TAe-13" value="- potencia:int" style="text;align=left;verticalAlign=top;spacingLeft=4;spacingRight=4;overflow=hidden;rotatable=0;points=[[0,0.5],[1,0.5]];portConstraint=eastwest;" vertex="1" parent="QT5-kErvMyWDPy3g1TAe-12">
          <mxGeometry y="40" width="192" height="26" as="geometry" />
        </mxCell>
        <mxCell id="QT5-kErvMyWDPy3g1TAe-14" value="- tipoCombustible: TipoCombustible" style="text;align=left;verticalAlign=top;spacingLeft=4;spacingRight=4;overflow=hidden;rotatable=0;points=[[0,0.5],[1,0.5]];portConstraint=eastwest;rounded=0;shadow=0;html=0;" vertex="1" parent="QT5-kErvMyWDPy3g1TAe-12">
          <mxGeometry y="66" width="192" height="26" as="geometry" />
        </mxCell>
        <mxCell id="QT5-kErvMyWDPy3g1TAe-15" value="" style="line;html=1;strokeWidth=1;align=left;verticalAlign=middle;spacingTop=-1;spacingLeft=3;spacingRight=3;rotatable=0;labelPosition=right;points=[];portConstraint=eastwest;" vertex="1" parent="QT5-kErvMyWDPy3g1TAe-12">
          <mxGeometry y="92" width="192" height="8" as="geometry" />
        </mxCell>
        <mxCell id="QT5-kErvMyWDPy3g1TAe-16" value="" style="endArrow=diamondThin;endFill=1;endSize=24;html=1;rounded=0;entryX=1.01;entryY=0.192;entryDx=0;entryDy=0;entryPerimeter=0;exitX=0;exitY=0.5;exitDx=0;exitDy=0;" edge="1" parent="WIyWlLk6GJQsqaUBKTNV-1" source="QT5-kErvMyWDPy3g1TAe-10" target="QT5-kErvMyWDPy3g1TAe-2">
          <mxGeometry width="160" relative="1" as="geometry">
            <mxPoint x="550" y="340" as="sourcePoint" />
            <mxPoint x="710" y="340" as="targetPoint" />
          </mxGeometry>
        </mxCell>
        <mxCell id="QT5-kErvMyWDPy3g1TAe-17" style="edgeStyle=orthogonalEdgeStyle;rounded=0;orthogonalLoop=1;jettySize=auto;html=1;exitX=1;exitY=0.5;exitDx=0;exitDy=0;entryX=0;entryY=0.923;entryDx=0;entryDy=0;entryPerimeter=0;" edge="1" parent="WIyWlLk6GJQsqaUBKTNV-1" source="QT5-kErvMyWDPy3g1TAe-10" target="QT5-kErvMyWDPy3g1TAe-13">
          <mxGeometry relative="1" as="geometry" />
        </mxCell>
        <mxCell id="QT5-kErvMyWDPy3g1TAe-18" value="VehiculoNavegable&#xa;&lt;&lt;interface&gt;&gt;" style="swimlane;fontStyle=2;align=center;verticalAlign=top;childLayout=stackLayout;horizontal=1;startSize=40;horizontalStack=0;resizeParent=1;resizeLast=0;collapsible=1;marginBottom=0;rounded=0;shadow=0;strokeWidth=1;" vertex="1" parent="WIyWlLk6GJQsqaUBKTNV-1">
          <mxGeometry x="600" y="424" width="192" height="80" as="geometry">
            <mxRectangle x="550" y="140" width="160" height="26" as="alternateBounds" />
          </mxGeometry>
        </mxCell>
        <mxCell id="QT5-kErvMyWDPy3g1TAe-21" value="" style="line;html=1;strokeWidth=1;align=left;verticalAlign=middle;spacingTop=-1;spacingLeft=3;spacingRight=3;rotatable=0;labelPosition=right;points=[];portConstraint=eastwest;" vertex="1" parent="QT5-kErvMyWDPy3g1TAe-18">
          <mxGeometry y="40" width="192" height="8" as="geometry" />
        </mxCell>
        <mxCell id="QT5-kErvMyWDPy3g1TAe-22" value="+ navegar()" style="text;align=left;verticalAlign=top;spacingLeft=4;spacingRight=4;overflow=hidden;rotatable=0;points=[[0,0.5],[1,0.5]];portConstraint=eastwest;fontStyle=2" vertex="1" parent="QT5-kErvMyWDPy3g1TAe-18">
          <mxGeometry y="48" width="192" height="26" as="geometry" />
        </mxCell>
        <mxCell id="QT5-kErvMyWDPy3g1TAe-23" value="" style="endArrow=block;dashed=1;endFill=0;endSize=12;html=1;rounded=0;exitX=1;exitY=0.5;exitDx=0;exitDy=0;entryX=0;entryY=0.038;entryDx=0;entryDy=0;entryPerimeter=0;" edge="1" parent="WIyWlLk6GJQsqaUBKTNV-1" source="QT5-kErvMyWDPy3g1TAe-6" target="QT5-kErvMyWDPy3g1TAe-22">
          <mxGeometry width="160" relative="1" as="geometry">
            <mxPoint x="440" y="420" as="sourcePoint" />
            <mxPoint x="600" y="420" as="targetPoint" />
          </mxGeometry>
        </mxCell>
      </root>
    </mxGraphModel>
  </diagram>
</mxfile>
